<svg width="1440" height="1024" viewBox="0 0 1440 1024" fill="none" xmlns="http://www.w3.org/2000/svg">
<rect width="1440" height="1024" fill="#E5E5E5"/>
<rect width="1440" height="1024" fill="white"/>
<rect y="870" width="1440" height="154" fill="#C4C4C4"/>
<rect x="418" y="390" width="641" height="392" fill="#9C9C9C"/>
<rect x="418" y="55" width="641" height="335" fill="#C4C4C4"/>
<path d="M637.212 950V915.091H658.143V918.841H641.439V930.636H656.575V934.386H641.439V950H637.212ZM694.838 932.545C694.838 936.227 694.173 939.409 692.844 942.091C691.514 944.773 689.69 946.841 687.372 948.295C685.054 949.75 682.406 950.477 679.429 950.477C676.452 950.477 673.804 949.75 671.486 948.295C669.168 946.841 667.344 944.773 666.014 942.091C664.685 939.409 664.02 936.227 664.02 932.545C664.02 928.864 664.685 925.682 666.014 923C667.344 920.318 669.168 918.25 671.486 916.795C673.804 915.341 676.452 914.614 679.429 914.614C682.406 914.614 685.054 915.341 687.372 916.795C689.69 918.25 691.514 920.318 692.844 923C694.173 925.682 694.838 928.864 694.838 932.545ZM690.747 932.545C690.747 929.523 690.241 926.972 689.23 924.892C688.23 922.812 686.872 921.239 685.156 920.17C683.452 919.102 681.543 918.568 679.429 918.568C677.315 918.568 675.401 919.102 673.685 920.17C671.98 921.239 670.622 922.812 669.611 924.892C668.611 926.972 668.111 929.523 668.111 932.545C668.111 935.568 668.611 938.119 669.611 940.199C670.622 942.278 671.98 943.852 673.685 944.92C675.401 945.989 677.315 946.523 679.429 946.523C681.543 946.523 683.452 945.989 685.156 944.92C686.872 943.852 688.23 942.278 689.23 940.199C690.241 938.119 690.747 935.568 690.747 932.545ZM731.401 932.545C731.401 936.227 730.736 939.409 729.406 942.091C728.077 944.773 726.253 946.841 723.935 948.295C721.616 949.75 718.969 950.477 715.991 950.477C713.014 950.477 710.366 949.75 708.048 948.295C705.73 946.841 703.906 944.773 702.577 942.091C701.247 939.409 700.582 936.227 700.582 932.545C700.582 928.864 701.247 925.682 702.577 923C703.906 920.318 705.73 918.25 708.048 916.795C710.366 915.341 713.014 914.614 715.991 914.614C718.969 914.614 721.616 915.341 723.935 916.795C726.253 918.25 728.077 920.318 729.406 923C730.736 925.682 731.401 928.864 731.401 932.545ZM727.31 932.545C727.31 929.523 726.804 926.972 725.793 924.892C724.793 922.812 723.435 921.239 721.719 920.17C720.014 919.102 718.105 918.568 715.991 918.568C713.878 918.568 711.963 919.102 710.247 920.17C708.543 921.239 707.185 922.812 706.173 924.892C705.173 926.972 704.673 929.523 704.673 932.545C704.673 935.568 705.173 938.119 706.173 940.199C707.185 942.278 708.543 943.852 710.247 944.92C711.963 945.989 713.878 946.523 715.991 946.523C718.105 946.523 720.014 945.989 721.719 944.92C723.435 943.852 724.793 942.278 725.793 940.199C726.804 938.119 727.31 935.568 727.31 932.545ZM735.146 918.841V915.091H761.328V918.841H750.351V950H746.124V918.841H735.146ZM767.852 950V915.091H788.92V918.841H772.08V930.636H787.83V934.386H772.08V946.25H789.193V950H767.852ZM796.54 950V915.091H808.335C811.063 915.091 813.301 915.557 815.051 916.489C816.801 917.409 818.097 918.676 818.938 920.29C819.778 921.903 820.199 923.739 820.199 925.795C820.199 927.852 819.778 929.676 818.938 931.267C818.097 932.858 816.807 934.108 815.068 935.017C813.33 935.915 811.108 936.364 808.403 936.364H798.858V932.545H808.267C810.131 932.545 811.631 932.273 812.767 931.727C813.915 931.182 814.744 930.409 815.256 929.409C815.778 928.398 816.04 927.193 816.04 925.795C816.04 924.398 815.778 923.176 815.256 922.131C814.733 921.085 813.898 920.278 812.75 919.71C811.602 919.131 810.085 918.841 808.199 918.841H800.767V950H796.54ZM812.972 934.318L821.562 950H816.653L808.199 934.318H812.972Z" fill="black"/>
<path d="M539.898 121H529.126V86.0909H540.376C543.762 86.0909 546.66 86.7898 549.069 88.1875C551.478 89.5739 553.325 91.5682 554.609 94.1705C555.893 96.7614 556.535 99.8636 556.535 103.477C556.535 107.114 555.887 110.244 554.592 112.869C553.296 115.483 551.41 117.494 548.933 118.903C546.455 120.301 543.444 121 539.898 121ZM533.353 117.25H539.626C542.512 117.25 544.904 116.693 546.802 115.58C548.7 114.466 550.114 112.881 551.046 110.824C551.978 108.767 552.444 106.318 552.444 103.477C552.444 100.659 551.984 98.233 551.063 96.1989C550.143 94.1534 548.768 92.5852 546.938 91.4943C545.109 90.392 542.83 89.8409 540.103 89.8409H533.353V117.25ZM567.853 86.0909V121H563.626V86.0909H567.853ZM595.42 94.8182C595.215 93.0909 594.386 91.75 592.931 90.7955C591.477 89.8409 589.692 89.3636 587.579 89.3636C586.033 89.3636 584.681 89.6136 583.522 90.1136C582.374 90.6136 581.477 91.3011 580.829 92.1761C580.192 93.0511 579.874 94.0455 579.874 95.1591C579.874 96.0909 580.096 96.892 580.539 97.5625C580.994 98.2216 581.573 98.7727 582.278 99.2159C582.982 99.6477 583.721 100.006 584.494 100.29C585.266 100.562 585.977 100.784 586.624 100.955L590.17 101.909C591.079 102.148 592.09 102.477 593.204 102.898C594.329 103.318 595.403 103.892 596.425 104.619C597.46 105.335 598.312 106.256 598.982 107.381C599.653 108.506 599.988 109.886 599.988 111.523C599.988 113.409 599.494 115.114 598.505 116.636C597.528 118.159 596.096 119.369 594.21 120.267C592.335 121.165 590.056 121.614 587.374 121.614C584.874 121.614 582.71 121.21 580.88 120.403C579.062 119.597 577.63 118.472 576.585 117.028C575.55 115.585 574.965 113.909 574.829 112H579.192C579.306 113.318 579.749 114.409 580.522 115.273C581.306 116.125 582.295 116.761 583.488 117.182C584.692 117.591 585.988 117.795 587.374 117.795C588.988 117.795 590.437 117.534 591.721 117.011C593.005 116.477 594.022 115.739 594.772 114.795C595.522 113.841 595.897 112.727 595.897 111.455C595.897 110.295 595.573 109.352 594.925 108.625C594.278 107.898 593.425 107.307 592.369 106.852C591.312 106.398 590.17 106 588.942 105.659L584.647 104.432C581.92 103.648 579.761 102.528 578.17 101.074C576.579 99.6193 575.783 97.7159 575.783 95.3636C575.783 93.4091 576.312 91.7045 577.369 90.25C578.437 88.7841 579.869 87.6477 581.664 86.8409C583.471 86.0227 585.488 85.6136 587.715 85.6136C589.965 85.6136 591.965 86.017 593.715 86.8239C595.465 87.6193 596.852 88.7102 597.874 90.0966C598.908 91.483 599.454 93.0568 599.511 94.8182H595.42ZM606.938 121V86.0909H618.734C621.472 86.0909 623.711 86.5852 625.45 87.5739C627.2 88.5511 628.495 89.875 629.336 91.5455C630.177 93.2159 630.597 95.0795 630.597 97.1364C630.597 99.1932 630.177 101.062 629.336 102.744C628.506 104.426 627.222 105.767 625.484 106.767C623.745 107.756 621.518 108.25 618.802 108.25H610.347V104.5H618.665C620.54 104.5 622.046 104.176 623.183 103.528C624.319 102.881 625.143 102.006 625.654 100.903C626.177 99.7898 626.438 98.5341 626.438 97.1364C626.438 95.7386 626.177 94.4886 625.654 93.3864C625.143 92.2841 624.313 91.4205 623.165 90.7955C622.018 90.1591 620.495 89.8409 618.597 89.8409H611.165V121H606.938ZM637.407 121V86.0909H641.634V117.25H657.862V121H637.407ZM668.042 121H663.61L676.428 86.0909H680.792L693.61 121H689.178L678.746 91.6136H678.474L668.042 121ZM669.678 107.364H687.542V111.114H669.678V107.364ZM692.485 86.0909H697.326L707.008 102.386H707.417L717.099 86.0909H721.94L709.326 106.614V121H705.099V106.614L692.485 86.0909ZM759.998 94.8182C759.793 93.0909 758.964 91.75 757.509 90.7955C756.055 89.8409 754.271 89.3636 752.157 89.3636C750.612 89.3636 749.259 89.6136 748.1 90.1136C746.952 90.6136 746.055 91.3011 745.407 92.1761C744.771 93.0511 744.452 94.0455 744.452 95.1591C744.452 96.0909 744.674 96.892 745.117 97.5625C745.572 98.2216 746.151 98.7727 746.856 99.2159C747.56 99.6477 748.299 100.006 749.072 100.29C749.844 100.562 750.555 100.784 751.202 100.955L754.748 101.909C755.657 102.148 756.668 102.477 757.782 102.898C758.907 103.318 759.981 103.892 761.004 104.619C762.038 105.335 762.89 106.256 763.56 107.381C764.231 108.506 764.566 109.886 764.566 111.523C764.566 113.409 764.072 115.114 763.083 116.636C762.106 118.159 760.674 119.369 758.788 120.267C756.913 121.165 754.634 121.614 751.952 121.614C749.452 121.614 747.288 121.21 745.458 120.403C743.64 119.597 742.208 118.472 741.163 117.028C740.129 115.585 739.543 113.909 739.407 112H743.771C743.884 113.318 744.327 114.409 745.1 115.273C745.884 116.125 746.873 116.761 748.066 117.182C749.271 117.591 750.566 117.795 751.952 117.795C753.566 117.795 755.015 117.534 756.299 117.011C757.583 116.477 758.6 115.739 759.35 114.795C760.1 113.841 760.475 112.727 760.475 111.455C760.475 110.295 760.151 109.352 759.504 108.625C758.856 107.898 758.004 107.307 756.947 106.852C755.89 106.398 754.748 106 753.521 105.659L749.225 104.432C746.498 103.648 744.339 102.528 742.748 101.074C741.157 99.6193 740.362 97.7159 740.362 95.3636C740.362 93.4091 740.89 91.7045 741.947 90.25C743.015 88.7841 744.447 87.6477 746.242 86.8409C748.049 86.0227 750.066 85.6136 752.293 85.6136C754.543 85.6136 756.543 86.017 758.293 86.8239C760.043 87.6193 761.43 88.7102 762.452 90.0966C763.487 91.483 764.032 93.0568 764.089 94.8182H759.998ZM771.516 121V86.0909H792.585V89.8409H775.744V101.636H791.494V105.386H775.744V117.25H792.857V121H771.516ZM828.295 97H824.067C823.817 95.7841 823.38 94.7159 822.755 93.7955C822.141 92.875 821.391 92.1023 820.505 91.4773C819.63 90.8409 818.658 90.3636 817.59 90.0455C816.522 89.7273 815.408 89.5682 814.249 89.5682C812.136 89.5682 810.221 90.1023 808.505 91.1705C806.8 92.2386 805.442 93.8125 804.431 95.892C803.431 97.9716 802.931 100.523 802.931 103.545C802.931 106.568 803.431 109.119 804.431 111.199C805.442 113.278 806.8 114.852 808.505 115.92C810.221 116.989 812.136 117.523 814.249 117.523C815.408 117.523 816.522 117.364 817.59 117.045C818.658 116.727 819.63 116.256 820.505 115.631C821.391 114.994 822.141 114.216 822.755 113.295C823.38 112.364 823.817 111.295 824.067 110.091H828.295C827.977 111.875 827.397 113.472 826.556 114.881C825.715 116.29 824.67 117.489 823.42 118.477C822.17 119.455 820.766 120.199 819.21 120.71C817.664 121.222 816.011 121.477 814.249 121.477C811.272 121.477 808.624 120.75 806.306 119.295C803.988 117.841 802.164 115.773 800.835 113.091C799.505 110.409 798.84 107.227 798.84 103.545C798.84 99.8636 799.505 96.6818 800.835 94C802.164 91.3182 803.988 89.25 806.306 87.7955C808.624 86.3409 811.272 85.6136 814.249 85.6136C816.011 85.6136 817.664 85.8693 819.21 86.3807C820.766 86.892 822.17 87.642 823.42 88.6307C824.67 89.608 825.715 90.8011 826.556 92.2102C827.397 93.608 827.977 95.2045 828.295 97ZM833.217 89.8409V86.0909H859.398V89.8409H848.421V121H844.194V89.8409H833.217ZM870.15 86.0909V121H865.923V86.0909H870.15ZM908.08 103.545C908.08 107.227 907.415 110.409 906.086 113.091C904.756 115.773 902.933 117.841 900.614 119.295C898.296 120.75 895.648 121.477 892.671 121.477C889.694 121.477 887.046 120.75 884.728 119.295C882.41 117.841 880.586 115.773 879.256 113.091C877.927 110.409 877.262 107.227 877.262 103.545C877.262 99.8636 877.927 96.6818 879.256 94C880.586 91.3182 882.41 89.25 884.728 87.7955C887.046 86.3409 889.694 85.6136 892.671 85.6136C895.648 85.6136 898.296 86.3409 900.614 87.7955C902.933 89.25 904.756 91.3182 906.086 94C907.415 96.6818 908.08 99.8636 908.08 103.545ZM903.989 103.545C903.989 100.523 903.484 97.9716 902.472 95.892C901.472 93.8125 900.114 92.2386 898.398 91.1705C896.694 90.1023 894.785 89.5682 892.671 89.5682C890.558 89.5682 888.643 90.1023 886.927 91.1705C885.222 92.2386 883.864 93.8125 882.853 95.892C881.853 97.9716 881.353 100.523 881.353 103.545C881.353 106.568 881.853 109.119 882.853 111.199C883.864 113.278 885.222 114.852 886.927 115.92C888.643 116.989 890.558 117.523 892.671 117.523C894.785 117.523 896.694 116.989 898.398 115.92C900.114 114.852 901.472 113.278 902.472 111.199C903.484 109.119 903.989 106.568 903.989 103.545ZM942.87 86.0909V121H938.779L919.756 93.5909H919.415V121H915.188V86.0909H919.279L938.37 113.568H938.711V86.0909H942.87Z" fill="black"/>
<path d="M542.946 466V431.091H555.151C557.582 431.091 559.588 431.511 561.168 432.352C562.747 433.182 563.923 434.301 564.696 435.71C565.469 437.108 565.855 438.659 565.855 440.364C565.855 441.864 565.588 443.102 565.054 444.08C564.531 445.057 563.838 445.83 562.974 446.398C562.122 446.966 561.196 447.386 560.196 447.659V448C561.264 448.068 562.338 448.443 563.418 449.125C564.497 449.807 565.401 450.784 566.128 452.057C566.855 453.33 567.219 454.886 567.219 456.727C567.219 458.477 566.821 460.051 566.026 461.449C565.23 462.847 563.974 463.955 562.259 464.773C560.543 465.591 558.31 466 555.56 466H542.946ZM547.173 462.25H555.56C558.321 462.25 560.281 461.716 561.44 460.648C562.611 459.568 563.196 458.261 563.196 456.727C563.196 455.545 562.895 454.455 562.293 453.455C561.69 452.443 560.832 451.636 559.719 451.034C558.605 450.42 557.287 450.114 555.764 450.114H547.173V462.25ZM547.173 446.432H555.014C556.287 446.432 557.435 446.182 558.457 445.682C559.491 445.182 560.31 444.477 560.912 443.568C561.526 442.659 561.832 441.591 561.832 440.364C561.832 438.83 561.298 437.528 560.23 436.46C559.162 435.381 557.469 434.841 555.151 434.841H547.173V446.432ZM597.074 431.091H601.301V454.205C601.301 456.591 600.739 458.722 599.614 460.597C598.5 462.46 596.926 463.932 594.892 465.011C592.858 466.08 590.472 466.614 587.733 466.614C584.994 466.614 582.608 466.08 580.574 465.011C578.54 463.932 576.96 462.46 575.835 460.597C574.722 458.722 574.165 456.591 574.165 454.205V431.091H578.392V453.864C578.392 455.568 578.767 457.085 579.517 458.415C580.267 459.733 581.335 460.773 582.722 461.534C584.119 462.284 585.79 462.659 587.733 462.659C589.676 462.659 591.347 462.284 592.744 461.534C594.142 460.773 595.21 459.733 595.949 458.415C596.699 457.085 597.074 455.568 597.074 453.864V431.091ZM607.834 434.841V431.091H634.016V434.841H623.038V466H618.811V434.841H607.834ZM638.631 434.841V431.091H664.812V434.841H653.835V466H649.608V434.841H638.631ZM699.338 448.545C699.338 452.227 698.673 455.409 697.344 458.091C696.014 460.773 694.19 462.841 691.872 464.295C689.554 465.75 686.906 466.477 683.929 466.477C680.952 466.477 678.304 465.75 675.986 464.295C673.668 462.841 671.844 460.773 670.514 458.091C669.185 455.409 668.52 452.227 668.52 448.545C668.52 444.864 669.185 441.682 670.514 439C671.844 436.318 673.668 434.25 675.986 432.795C678.304 431.341 680.952 430.614 683.929 430.614C686.906 430.614 689.554 431.341 691.872 432.795C694.19 434.25 696.014 436.318 697.344 439C698.673 441.682 699.338 444.864 699.338 448.545ZM695.247 448.545C695.247 445.523 694.741 442.972 693.73 440.892C692.73 438.812 691.372 437.239 689.656 436.17C687.952 435.102 686.043 434.568 683.929 434.568C681.815 434.568 679.901 435.102 678.185 436.17C676.48 437.239 675.122 438.812 674.111 440.892C673.111 442.972 672.611 445.523 672.611 448.545C672.611 451.568 673.111 454.119 674.111 456.199C675.122 458.278 676.48 459.852 678.185 460.92C679.901 461.989 681.815 462.523 683.929 462.523C686.043 462.523 687.952 461.989 689.656 460.92C691.372 459.852 692.73 458.278 693.73 456.199C694.741 454.119 695.247 451.568 695.247 448.545ZM734.128 431.091V466H730.037L711.014 438.591H710.673V466H706.446V431.091H710.537L729.628 458.568H729.969V431.091H734.128ZM775.178 439.818C774.973 438.091 774.143 436.75 772.689 435.795C771.234 434.841 769.45 434.364 767.337 434.364C765.791 434.364 764.439 434.614 763.28 435.114C762.132 435.614 761.234 436.301 760.587 437.176C759.95 438.051 759.632 439.045 759.632 440.159C759.632 441.091 759.854 441.892 760.297 442.562C760.751 443.222 761.331 443.773 762.036 444.216C762.74 444.648 763.479 445.006 764.251 445.29C765.024 445.562 765.734 445.784 766.382 445.955L769.928 446.909C770.837 447.148 771.848 447.477 772.962 447.898C774.087 448.318 775.161 448.892 776.183 449.619C777.217 450.335 778.07 451.256 778.74 452.381C779.411 453.506 779.746 454.886 779.746 456.523C779.746 458.409 779.251 460.114 778.263 461.636C777.286 463.159 775.854 464.369 773.967 465.267C772.092 466.165 769.814 466.614 767.132 466.614C764.632 466.614 762.467 466.21 760.638 465.403C758.82 464.597 757.388 463.472 756.342 462.028C755.308 460.585 754.723 458.909 754.587 457H758.95C759.064 458.318 759.507 459.409 760.28 460.273C761.064 461.125 762.053 461.761 763.246 462.182C764.45 462.591 765.746 462.795 767.132 462.795C768.746 462.795 770.195 462.534 771.479 462.011C772.763 461.477 773.78 460.739 774.53 459.795C775.28 458.841 775.655 457.727 775.655 456.455C775.655 455.295 775.331 454.352 774.683 453.625C774.036 452.898 773.183 452.307 772.126 451.852C771.07 451.398 769.928 451 768.7 450.659L764.405 449.432C761.678 448.648 759.518 447.528 757.928 446.074C756.337 444.619 755.541 442.716 755.541 440.364C755.541 438.409 756.07 436.705 757.126 435.25C758.195 433.784 759.626 432.648 761.422 431.841C763.229 431.023 765.246 430.614 767.473 430.614C769.723 430.614 771.723 431.017 773.473 431.824C775.223 432.619 776.609 433.71 777.632 435.097C778.666 436.483 779.212 438.057 779.268 439.818H775.178ZM786.696 466V431.091H807.764V434.841H790.923V446.636H806.673V450.386H790.923V462.25H808.037V466H786.696ZM843.474 442H839.247C838.997 440.784 838.56 439.716 837.935 438.795C837.321 437.875 836.571 437.102 835.685 436.477C834.81 435.841 833.838 435.364 832.77 435.045C831.702 434.727 830.588 434.568 829.429 434.568C827.315 434.568 825.401 435.102 823.685 436.17C821.98 437.239 820.622 438.812 819.611 440.892C818.611 442.972 818.111 445.523 818.111 448.545C818.111 451.568 818.611 454.119 819.611 456.199C820.622 458.278 821.98 459.852 823.685 460.92C825.401 461.989 827.315 462.523 829.429 462.523C830.588 462.523 831.702 462.364 832.77 462.045C833.838 461.727 834.81 461.256 835.685 460.631C836.571 459.994 837.321 459.216 837.935 458.295C838.56 457.364 838.997 456.295 839.247 455.091H843.474C843.156 456.875 842.577 458.472 841.736 459.881C840.895 461.29 839.849 462.489 838.599 463.477C837.349 464.455 835.946 465.199 834.389 465.71C832.844 466.222 831.19 466.477 829.429 466.477C826.452 466.477 823.804 465.75 821.486 464.295C819.168 462.841 817.344 460.773 816.014 458.091C814.685 455.409 814.02 452.227 814.02 448.545C814.02 444.864 814.685 441.682 816.014 439C817.344 436.318 819.168 434.25 821.486 432.795C823.804 431.341 826.452 430.614 829.429 430.614C831.19 430.614 832.844 430.869 834.389 431.381C835.946 431.892 837.349 432.642 838.599 433.631C839.849 434.608 840.895 435.801 841.736 437.21C842.577 438.608 843.156 440.205 843.474 442ZM848.396 434.841V431.091H874.578V434.841H863.601V466H859.374V434.841H848.396ZM885.33 431.091V466H881.102V431.091H885.33ZM923.26 448.545C923.26 452.227 922.595 455.409 921.266 458.091C919.936 460.773 918.112 462.841 915.794 464.295C913.476 465.75 910.828 466.477 907.851 466.477C904.874 466.477 902.226 465.75 899.908 464.295C897.589 462.841 895.766 460.773 894.436 458.091C893.107 455.409 892.442 452.227 892.442 448.545C892.442 444.864 893.107 441.682 894.436 439C895.766 436.318 897.589 434.25 899.908 432.795C902.226 431.341 904.874 430.614 907.851 430.614C910.828 430.614 913.476 431.341 915.794 432.795C918.112 434.25 919.936 436.318 921.266 439C922.595 441.682 923.26 444.864 923.26 448.545ZM919.169 448.545C919.169 445.523 918.663 442.972 917.652 440.892C916.652 438.812 915.294 437.239 913.578 436.17C911.874 435.102 909.964 434.568 907.851 434.568C905.737 434.568 903.822 435.102 902.107 436.17C900.402 437.239 899.044 438.812 898.033 440.892C897.033 442.972 896.533 445.523 896.533 448.545C896.533 451.568 897.033 454.119 898.033 456.199C899.044 458.278 900.402 459.852 902.107 460.92C903.822 461.989 905.737 462.523 907.851 462.523C909.964 462.523 911.874 461.989 913.578 460.92C915.294 459.852 916.652 458.278 917.652 456.199C918.663 454.119 919.169 451.568 919.169 448.545ZM958.05 431.091V466H953.959L934.936 438.591H934.595V466H930.368V431.091H934.459L953.55 458.568H953.891V431.091H958.05Z" fill="white"/>
<path d="M600.482 22H596.255C596.005 20.7841 595.567 19.7159 594.942 18.7955C594.329 17.875 593.579 17.1023 592.692 16.4773C591.817 15.8409 590.846 15.3636 589.778 15.0455C588.71 14.7273 587.596 14.5682 586.437 14.5682C584.323 14.5682 582.408 15.1023 580.692 16.1705C578.988 17.2386 577.63 18.8125 576.619 20.892C575.619 22.9716 575.119 25.5227 575.119 28.5455C575.119 31.5682 575.619 34.1193 576.619 36.1989C577.63 38.2784 578.988 39.8523 580.692 40.9205C582.408 41.9886 584.323 42.5227 586.437 42.5227C587.596 42.5227 588.71 42.3636 589.778 42.0455C590.846 41.7273 591.817 41.2557 592.692 40.6307C593.579 39.9943 594.329 39.2159 594.942 38.2955C595.567 37.3636 596.005 36.2955 596.255 35.0909H600.482C600.164 36.875 599.585 38.4716 598.744 39.8807C597.903 41.2898 596.857 42.4886 595.607 43.4773C594.357 44.4545 592.954 45.1989 591.397 45.7102C589.852 46.2216 588.198 46.4773 586.437 46.4773C583.46 46.4773 580.812 45.75 578.494 44.2955C576.175 42.8409 574.352 40.7727 573.022 38.0909C571.692 35.4091 571.028 32.2273 571.028 28.5455C571.028 24.8636 571.692 21.6818 573.022 19C574.352 16.3182 576.175 14.25 578.494 12.7955C580.812 11.3409 583.46 10.6136 586.437 10.6136C588.198 10.6136 589.852 10.8693 591.397 11.3807C592.954 11.892 594.357 12.642 595.607 13.6307C596.857 14.608 597.903 15.8011 598.744 17.2102C599.585 18.608 600.164 20.2045 600.482 22ZM608.745 46H604.313L617.131 11.0909H621.495L634.313 46H629.881L619.45 16.6136H619.177L608.745 46ZM610.381 32.3636H628.245V36.1136H610.381V32.3636ZM639.751 46V11.0909H643.978V42.25H660.205V46H639.751ZM693.482 22H689.255C689.005 20.7841 688.567 19.7159 687.942 18.7955C687.329 17.875 686.579 17.1023 685.692 16.4773C684.817 15.8409 683.846 15.3636 682.778 15.0455C681.71 14.7273 680.596 14.5682 679.437 14.5682C677.323 14.5682 675.408 15.1023 673.692 16.1705C671.988 17.2386 670.63 18.8125 669.619 20.892C668.619 22.9716 668.119 25.5227 668.119 28.5455C668.119 31.5682 668.619 34.1193 669.619 36.1989C670.63 38.2784 671.988 39.8523 673.692 40.9205C675.408 41.9886 677.323 42.5227 679.437 42.5227C680.596 42.5227 681.71 42.3636 682.778 42.0455C683.846 41.7273 684.817 41.2557 685.692 40.6307C686.579 39.9943 687.329 39.2159 687.942 38.2955C688.567 37.3636 689.005 36.2955 689.255 35.0909H693.482C693.164 36.875 692.585 38.4716 691.744 39.8807C690.903 41.2898 689.857 42.4886 688.607 43.4773C687.357 44.4545 685.954 45.1989 684.397 45.7102C682.852 46.2216 681.198 46.4773 679.437 46.4773C676.46 46.4773 673.812 45.75 671.494 44.2955C669.175 42.8409 667.352 40.7727 666.022 38.0909C664.692 35.4091 664.028 32.2273 664.028 28.5455C664.028 24.8636 664.692 21.6818 666.022 19C667.352 16.3182 669.175 14.25 671.494 12.7955C673.812 11.3409 676.46 10.6136 679.437 10.6136C681.198 10.6136 682.852 10.8693 684.397 11.3807C685.954 11.892 687.357 12.642 688.607 13.6307C689.857 14.608 690.903 15.8011 691.744 17.2102C692.585 18.608 693.164 20.2045 693.482 22ZM723.222 11.0909H727.45V34.2045C727.45 36.5909 726.887 38.7216 725.762 40.5966C724.648 42.4602 723.075 43.9318 721.04 45.0114C719.006 46.0795 716.62 46.6136 713.881 46.6136C711.143 46.6136 708.756 46.0795 706.722 45.0114C704.688 43.9318 703.109 42.4602 701.984 40.5966C700.87 38.7216 700.313 36.5909 700.313 34.2045V11.0909H704.54V33.8636C704.54 35.5682 704.915 37.0852 705.665 38.4148C706.415 39.733 707.484 40.7727 708.87 41.5341C710.268 42.2841 711.938 42.6591 713.881 42.6591C715.825 42.6591 717.495 42.2841 718.893 41.5341C720.29 40.7727 721.359 39.733 722.097 38.4148C722.847 37.0852 723.222 35.5682 723.222 33.8636V11.0909ZM735.891 46V11.0909H740.119V42.25H756.346V46H735.891ZM766.526 46H762.094L774.913 11.0909H779.276L792.094 46H787.663L777.231 16.6136H776.958L766.526 46ZM768.163 32.3636H786.026V36.1136H768.163V32.3636ZM791.545 14.8409V11.0909H817.727V14.8409H806.749V46H802.522V14.8409H791.545ZM852.252 28.5455C852.252 32.2273 851.587 35.4091 850.258 38.0909C848.928 40.7727 847.104 42.8409 844.786 44.2955C842.468 45.75 839.82 46.4773 836.843 46.4773C833.866 46.4773 831.218 45.75 828.9 44.2955C826.582 42.8409 824.758 40.7727 823.428 38.0909C822.099 35.4091 821.434 32.2273 821.434 28.5455C821.434 24.8636 822.099 21.6818 823.428 19C824.758 16.3182 826.582 14.25 828.9 12.7955C831.218 11.3409 833.866 10.6136 836.843 10.6136C839.82 10.6136 842.468 11.3409 844.786 12.7955C847.104 14.25 848.928 16.3182 850.258 19C851.587 21.6818 852.252 24.8636 852.252 28.5455ZM848.161 28.5455C848.161 25.5227 847.656 22.9716 846.644 20.892C845.644 18.8125 844.286 17.2386 842.57 16.1705C840.866 15.1023 838.957 14.5682 836.843 14.5682C834.729 14.5682 832.815 15.1023 831.099 16.1705C829.394 17.2386 828.036 18.8125 827.025 20.892C826.025 22.9716 825.525 25.5227 825.525 28.5455C825.525 31.5682 826.025 34.1193 827.025 36.1989C828.036 38.2784 829.394 39.8523 831.099 40.9205C832.815 41.9886 834.729 42.5227 836.843 42.5227C838.957 42.5227 840.866 41.9886 842.57 40.9205C844.286 39.8523 845.644 38.2784 846.644 36.1989C847.656 34.1193 848.161 31.5682 848.161 28.5455ZM859.36 46V11.0909H871.156C873.883 11.0909 876.121 11.5568 877.871 12.4886C879.621 13.4091 880.917 14.6761 881.758 16.2898C882.599 17.9034 883.019 19.7386 883.019 21.7955C883.019 23.8523 882.599 25.6761 881.758 27.267C880.917 28.858 879.627 30.108 877.888 31.017C876.15 31.9148 873.928 32.3636 871.224 32.3636H861.678V28.5455H871.087C872.951 28.5455 874.451 28.2727 875.587 27.7273C876.735 27.1818 877.565 26.4091 878.076 25.4091C878.599 24.3977 878.86 23.1932 878.86 21.7955C878.86 20.3977 878.599 19.1761 878.076 18.1307C877.553 17.0852 876.718 16.2784 875.57 15.7102C874.423 15.1307 872.906 14.8409 871.019 14.8409H863.587V46H859.36ZM875.792 30.3182L884.383 46H879.474L871.019 30.3182H875.792Z" fill="black"/>
</svg>
