<svg width="1440" height="1024" viewBox="0 0 1440 1024" fill="none" xmlns="http://www.w3.org/2000/svg">
<rect width="1440" height="1024" fill="#E5E5E5"/>
<rect width="1440" height="1024" fill="white"/>
<rect y="870" width="1440" height="154" fill="#C4C4C4"/>
<rect x="418" y="390" width="641" height="392" fill="#9C9C9C"/>
<rect x="418" y="55" width="641" height="335" fill="#C4C4C4"/>
<path d="M637.212 950V915.091H658.143V918.841H641.439V930.636H656.575V934.386H641.439V950H637.212ZM694.838 932.545C694.838 936.227 694.173 939.409 692.844 942.091C691.514 944.773 689.69 946.841 687.372 948.295C685.054 949.75 682.406 950.477 679.429 950.477C676.452 950.477 673.804 949.75 671.486 948.295C669.168 946.841 667.344 944.773 666.014 942.091C664.685 939.409 664.02 936.227 664.02 932.545C664.02 928.864 664.685 925.682 666.014 923C667.344 920.318 669.168 918.25 671.486 916.795C673.804 915.341 676.452 914.614 679.429 914.614C682.406 914.614 685.054 915.341 687.372 916.795C689.69 918.25 691.514 920.318 692.844 923C694.173 925.682 694.838 928.864 694.838 932.545ZM690.747 932.545C690.747 929.523 690.241 926.972 689.23 924.892C688.23 922.812 686.872 921.239 685.156 920.17C683.452 919.102 681.543 918.568 679.429 918.568C677.315 918.568 675.401 919.102 673.685 920.17C671.98 921.239 670.622 922.812 669.611 924.892C668.611 926.972 668.111 929.523 668.111 932.545C668.111 935.568 668.611 938.119 669.611 940.199C670.622 942.278 671.98 943.852 673.685 944.92C675.401 945.989 677.315 946.523 679.429 946.523C681.543 946.523 683.452 945.989 685.156 944.92C686.872 943.852 688.23 942.278 689.23 940.199C690.241 938.119 690.747 935.568 690.747 932.545ZM731.401 932.545C731.401 936.227 730.736 939.409 729.406 942.091C728.077 944.773 726.253 946.841 723.935 948.295C721.616 949.75 718.969 950.477 715.991 950.477C713.014 950.477 710.366 949.75 708.048 948.295C705.73 946.841 703.906 944.773 702.577 942.091C701.247 939.409 700.582 936.227 700.582 932.545C700.582 928.864 701.247 925.682 702.577 923C703.906 920.318 705.73 918.25 708.048 916.795C710.366 915.341 713.014 914.614 715.991 914.614C718.969 914.614 721.616 915.341 723.935 916.795C726.253 918.25 728.077 920.318 729.406 923C730.736 925.682 731.401 928.864 731.401 932.545ZM727.31 932.545C727.31 929.523 726.804 926.972 725.793 924.892C724.793 922.812 723.435 921.239 721.719 920.17C720.014 919.102 718.105 918.568 715.991 918.568C713.878 918.568 711.963 919.102 710.247 920.17C708.543 921.239 707.185 922.812 706.173 924.892C705.173 926.972 704.673 929.523 704.673 932.545C704.673 935.568 705.173 938.119 706.173 940.199C707.185 942.278 708.543 943.852 710.247 944.92C711.963 945.989 713.878 946.523 715.991 946.523C718.105 946.523 720.014 945.989 721.719 944.92C723.435 943.852 724.793 942.278 725.793 940.199C726.804 938.119 727.31 935.568 727.31 932.545ZM735.146 918.841V915.091H761.328V918.841H750.351V950H746.124V918.841H735.146ZM767.852 950V915.091H788.92V918.841H772.08V930.636H787.83V934.386H772.08V946.25H789.193V950H767.852ZM796.54 950V915.091H808.335C811.063 915.091 813.301 915.557 815.051 916.489C816.801 917.409 818.097 918.676 818.938 920.29C819.778 921.903 820.199 923.739 820.199 925.795C820.199 927.852 819.778 929.676 818.938 931.267C818.097 932.858 816.807 934.108 815.068 935.017C813.33 935.915 811.108 936.364 808.403 936.364H798.858V932.545H808.267C810.131 932.545 811.631 932.273 812.767 931.727C813.915 931.182 814.744 930.409 815.256 929.409C815.778 928.398 816.04 927.193 816.04 925.795C816.04 924.398 815.778 923.176 815.256 922.131C814.733 921.085 813.898 920.278 812.75 919.71C811.602 919.131 810.085 918.841 808.199 918.841H800.767V950H796.54ZM812.972 934.318L821.562 950H816.653L808.199 934.318H812.972Z" fill="black"/>
<path d="M600.482 22H596.255C596.005 20.7841 595.567 19.7159 594.942 18.7955C594.329 17.875 593.579 17.1023 592.692 16.4773C591.817 15.8409 590.846 15.3636 589.778 15.0455C588.71 14.7273 587.596 14.5682 586.437 14.5682C584.323 14.5682 582.408 15.1023 580.692 16.1705C578.988 17.2386 577.63 18.8125 576.619 20.892C575.619 22.9716 575.119 25.5227 575.119 28.5455C575.119 31.5682 575.619 34.1193 576.619 36.1989C577.63 38.2784 578.988 39.8523 580.692 40.9205C582.408 41.9886 584.323 42.5227 586.437 42.5227C587.596 42.5227 588.71 42.3636 589.778 42.0455C590.846 41.7273 591.817 41.2557 592.692 40.6307C593.579 39.9943 594.329 39.2159 594.942 38.2955C595.567 37.3636 596.005 36.2955 596.255 35.0909H600.482C600.164 36.875 599.585 38.4716 598.744 39.8807C597.903 41.2898 596.857 42.4886 595.607 43.4773C594.357 44.4545 592.954 45.1989 591.397 45.7102C589.852 46.2216 588.198 46.4773 586.437 46.4773C583.46 46.4773 580.812 45.75 578.494 44.2955C576.175 42.8409 574.352 40.7727 573.022 38.0909C571.692 35.4091 571.028 32.2273 571.028 28.5455C571.028 24.8636 571.692 21.6818 573.022 19C574.352 16.3182 576.175 14.25 578.494 12.7955C580.812 11.3409 583.46 10.6136 586.437 10.6136C588.198 10.6136 589.852 10.8693 591.397 11.3807C592.954 11.892 594.357 12.642 595.607 13.6307C596.857 14.608 597.903 15.8011 598.744 17.2102C599.585 18.608 600.164 20.2045 600.482 22ZM608.745 46H604.313L617.131 11.0909H621.495L634.313 46H629.881L619.45 16.6136H619.177L608.745 46ZM610.381 32.3636H628.245V36.1136H610.381V32.3636ZM639.751 46V11.0909H643.978V42.25H660.205V46H639.751ZM693.482 22H689.255C689.005 20.7841 688.567 19.7159 687.942 18.7955C687.329 17.875 686.579 17.1023 685.692 16.4773C684.817 15.8409 683.846 15.3636 682.778 15.0455C681.71 14.7273 680.596 14.5682 679.437 14.5682C677.323 14.5682 675.408 15.1023 673.692 16.1705C671.988 17.2386 670.63 18.8125 669.619 20.892C668.619 22.9716 668.119 25.5227 668.119 28.5455C668.119 31.5682 668.619 34.1193 669.619 36.1989C670.63 38.2784 671.988 39.8523 673.692 40.9205C675.408 41.9886 677.323 42.5227 679.437 42.5227C680.596 42.5227 681.71 42.3636 682.778 42.0455C683.846 41.7273 684.817 41.2557 685.692 40.6307C686.579 39.9943 687.329 39.2159 687.942 38.2955C688.567 37.3636 689.005 36.2955 689.255 35.0909H693.482C693.164 36.875 692.585 38.4716 691.744 39.8807C690.903 41.2898 689.857 42.4886 688.607 43.4773C687.357 44.4545 685.954 45.1989 684.397 45.7102C682.852 46.2216 681.198 46.4773 679.437 46.4773C676.46 46.4773 673.812 45.75 671.494 44.2955C669.175 42.8409 667.352 40.7727 666.022 38.0909C664.692 35.4091 664.028 32.2273 664.028 28.5455C664.028 24.8636 664.692 21.6818 666.022 19C667.352 16.3182 669.175 14.25 671.494 12.7955C673.812 11.3409 676.46 10.6136 679.437 10.6136C681.198 10.6136 682.852 10.8693 684.397 11.3807C685.954 11.892 687.357 12.642 688.607 13.6307C689.857 14.608 690.903 15.8011 691.744 17.2102C692.585 18.608 693.164 20.2045 693.482 22ZM723.222 11.0909H727.45V34.2045C727.45 36.5909 726.887 38.7216 725.762 40.5966C724.648 42.4602 723.075 43.9318 721.04 45.0114C719.006 46.0795 716.62 46.6136 713.881 46.6136C711.143 46.6136 708.756 46.0795 706.722 45.0114C704.688 43.9318 703.109 42.4602 701.984 40.5966C700.87 38.7216 700.313 36.5909 700.313 34.2045V11.0909H704.54V33.8636C704.54 35.5682 704.915 37.0852 705.665 38.4148C706.415 39.733 707.484 40.7727 708.87 41.5341C710.268 42.2841 711.938 42.6591 713.881 42.6591C715.825 42.6591 717.495 42.2841 718.893 41.5341C720.29 40.7727 721.359 39.733 722.097 38.4148C722.847 37.0852 723.222 35.5682 723.222 33.8636V11.0909ZM735.891 46V11.0909H740.119V42.25H756.346V46H735.891ZM766.526 46H762.094L774.913 11.0909H779.276L792.094 46H787.663L777.231 16.6136H776.958L766.526 46ZM768.163 32.3636H786.026V36.1136H768.163V32.3636ZM791.545 14.8409V11.0909H817.727V14.8409H806.749V46H802.522V14.8409H791.545ZM852.252 28.5455C852.252 32.2273 851.587 35.4091 850.258 38.0909C848.928 40.7727 847.104 42.8409 844.786 44.2955C842.468 45.75 839.82 46.4773 836.843 46.4773C833.866 46.4773 831.218 45.75 828.9 44.2955C826.582 42.8409 824.758 40.7727 823.428 38.0909C822.099 35.4091 821.434 32.2273 821.434 28.5455C821.434 24.8636 822.099 21.6818 823.428 19C824.758 16.3182 826.582 14.25 828.9 12.7955C831.218 11.3409 833.866 10.6136 836.843 10.6136C839.82 10.6136 842.468 11.3409 844.786 12.7955C847.104 14.25 848.928 16.3182 850.258 19C851.587 21.6818 852.252 24.8636 852.252 28.5455ZM848.161 28.5455C848.161 25.5227 847.656 22.9716 846.644 20.892C845.644 18.8125 844.286 17.2386 842.57 16.1705C840.866 15.1023 838.957 14.5682 836.843 14.5682C834.729 14.5682 832.815 15.1023 831.099 16.1705C829.394 17.2386 828.036 18.8125 827.025 20.892C826.025 22.9716 825.525 25.5227 825.525 28.5455C825.525 31.5682 826.025 34.1193 827.025 36.1989C828.036 38.2784 829.394 39.8523 831.099 40.9205C832.815 41.9886 834.729 42.5227 836.843 42.5227C838.957 42.5227 840.866 41.9886 842.57 40.9205C844.286 39.8523 845.644 38.2784 846.644 36.1989C847.656 34.1193 848.161 31.5682 848.161 28.5455ZM859.36 46V11.0909H871.156C873.883 11.0909 876.121 11.5568 877.871 12.4886C879.621 13.4091 880.917 14.6761 881.758 16.2898C882.599 17.9034 883.019 19.7386 883.019 21.7955C883.019 23.8523 882.599 25.6761 881.758 27.267C880.917 28.858 879.627 30.108 877.888 31.017C876.15 31.9148 873.928 32.3636 871.224 32.3636H861.678V28.5455H871.087C872.951 28.5455 874.451 28.2727 875.587 27.7273C876.735 27.1818 877.565 26.4091 878.076 25.4091C878.599 24.3977 878.86 23.1932 878.86 21.7955C878.86 20.3977 878.599 19.1761 878.076 18.1307C877.553 17.0852 876.718 16.2784 875.57 15.7102C874.423 15.1307 872.906 14.8409 871.019 14.8409H863.587V46H859.36ZM875.792 30.3182L884.383 46H879.474L871.019 30.3182H875.792Z" fill="black"/>
<rect x="428" y="69" width="618" height="101" fill="#7E7B7B"/>
<rect x="452" y="195" width="574" height="168" fill="#99F8A2"/>
<rect x="464" y="417" width="562" height="77" fill="#EB1414"/>
<rect x="473" y="512" width="417" height="234" fill="#C4C4C4"/>
<rect x="908" y="512" width="118" height="234" fill="#6BB4F8"/>
<path d="M597.313 104.091H602.359L614.222 133.068H614.631L626.495 104.091H631.54V139H627.586V112.477H627.245L616.336 139H612.518L601.609 112.477H601.268V139H597.313V104.091ZM650.107 139.545C647.744 139.545 645.67 138.983 643.886 137.858C642.113 136.733 640.727 135.159 639.727 133.136C638.738 131.114 638.244 128.75 638.244 126.045C638.244 123.318 638.738 120.937 639.727 118.903C640.727 116.869 642.113 115.29 643.886 114.165C645.67 113.04 647.744 112.477 650.107 112.477C652.471 112.477 654.539 113.04 656.312 114.165C658.096 115.29 659.482 116.869 660.471 118.903C661.471 120.937 661.971 123.318 661.971 126.045C661.971 128.75 661.471 131.114 660.471 133.136C659.482 135.159 658.096 136.733 656.312 137.858C654.539 138.983 652.471 139.545 650.107 139.545ZM650.107 135.932C651.903 135.932 653.38 135.472 654.539 134.551C655.698 133.631 656.556 132.42 657.113 130.92C657.67 129.42 657.948 127.795 657.948 126.045C657.948 124.295 657.67 122.665 657.113 121.153C656.556 119.642 655.698 118.42 654.539 117.489C653.38 116.557 651.903 116.091 650.107 116.091C648.312 116.091 646.835 116.557 645.675 117.489C644.516 118.42 643.658 119.642 643.102 121.153C642.545 122.665 642.266 124.295 642.266 126.045C642.266 127.795 642.545 129.42 643.102 130.92C643.658 132.42 644.516 133.631 645.675 134.551C646.835 135.472 648.312 135.932 650.107 135.932ZM677.998 139.545C675.816 139.545 673.89 138.994 672.219 137.892C670.549 136.778 669.242 135.21 668.299 133.188C667.356 131.153 666.884 128.75 666.884 125.977C666.884 123.227 667.356 120.841 668.299 118.818C669.242 116.795 670.555 115.233 672.237 114.131C673.918 113.028 675.862 112.477 678.066 112.477C679.771 112.477 681.117 112.761 682.106 113.33C683.106 113.886 683.867 114.523 684.39 115.239C684.924 115.943 685.339 116.523 685.634 116.977H685.975V104.091H689.998V139H686.112V134.977H685.634C685.339 135.455 684.918 136.057 684.373 136.784C683.827 137.5 683.049 138.142 682.038 138.71C681.026 139.267 679.68 139.545 677.998 139.545ZM678.543 135.932C680.157 135.932 681.521 135.511 682.634 134.67C683.748 133.818 684.594 132.642 685.174 131.142C685.754 129.631 686.043 127.886 686.043 125.909C686.043 123.955 685.759 122.244 685.191 120.778C684.623 119.301 683.782 118.153 682.668 117.335C681.555 116.506 680.18 116.091 678.543 116.091C676.839 116.091 675.418 116.528 674.282 117.403C673.157 118.267 672.31 119.443 671.742 120.932C671.185 122.409 670.907 124.068 670.907 125.909C670.907 127.773 671.191 129.466 671.759 130.989C672.339 132.5 673.191 133.705 674.316 134.602C675.452 135.489 676.862 135.932 678.543 135.932ZM708.901 139.545C706.379 139.545 704.202 138.989 702.373 137.875C700.555 136.75 699.151 135.182 698.163 133.17C697.185 131.148 696.697 128.795 696.697 126.114C696.697 123.432 697.185 121.068 698.163 119.023C699.151 116.966 700.526 115.364 702.288 114.216C704.06 113.057 706.129 112.477 708.492 112.477C709.856 112.477 711.202 112.705 712.532 113.159C713.862 113.614 715.072 114.352 716.163 115.375C717.254 116.386 718.123 117.727 718.771 119.398C719.418 121.068 719.742 123.125 719.742 125.568V127.273H699.56V123.795H715.651C715.651 122.318 715.356 121 714.765 119.841C714.185 118.682 713.356 117.767 712.276 117.097C711.208 116.426 709.947 116.091 708.492 116.091C706.89 116.091 705.504 116.489 704.333 117.284C703.174 118.068 702.282 119.091 701.657 120.352C701.032 121.614 700.719 122.966 700.719 124.409V126.727C700.719 128.705 701.06 130.381 701.742 131.756C702.435 133.119 703.396 134.159 704.623 134.875C705.85 135.58 707.276 135.932 708.901 135.932C709.958 135.932 710.913 135.784 711.765 135.489C712.629 135.182 713.373 134.727 713.998 134.125C714.623 133.511 715.106 132.75 715.447 131.841L719.333 132.932C718.924 134.25 718.237 135.409 717.271 136.409C716.305 137.398 715.112 138.17 713.691 138.727C712.271 139.273 710.674 139.545 708.901 139.545ZM729.884 104.091V139H725.862V104.091H729.884ZM778.979 104.091V139H774.888L755.866 111.591H755.525V139H751.298V104.091H755.388L774.479 131.568H774.82V104.091H778.979ZM794.597 139.614C792.938 139.614 791.433 139.301 790.08 138.676C788.728 138.04 787.654 137.125 786.859 135.932C786.063 134.727 785.665 133.273 785.665 131.568C785.665 130.068 785.961 128.852 786.552 127.92C787.143 126.977 787.933 126.239 788.921 125.705C789.91 125.17 791.001 124.773 792.194 124.511C793.398 124.239 794.609 124.023 795.825 123.864C797.415 123.659 798.705 123.506 799.694 123.403C800.694 123.29 801.421 123.102 801.876 122.841C802.342 122.58 802.575 122.125 802.575 121.477V121.341C802.575 119.659 802.114 118.352 801.194 117.42C800.285 116.489 798.904 116.023 797.052 116.023C795.131 116.023 793.626 116.443 792.535 117.284C791.444 118.125 790.677 119.023 790.234 119.977L786.415 118.614C787.097 117.023 788.006 115.784 789.143 114.898C790.29 114 791.54 113.375 792.893 113.023C794.256 112.659 795.597 112.477 796.915 112.477C797.756 112.477 798.722 112.58 799.813 112.784C800.915 112.977 801.978 113.381 803.001 113.994C804.035 114.608 804.893 115.534 805.575 116.773C806.256 118.011 806.597 119.67 806.597 121.75V139H802.575V135.455H802.37C802.097 136.023 801.643 136.631 801.006 137.278C800.37 137.926 799.523 138.477 798.467 138.932C797.41 139.386 796.12 139.614 794.597 139.614ZM795.211 136C796.802 136 798.143 135.688 799.234 135.062C800.336 134.438 801.165 133.631 801.722 132.642C802.29 131.653 802.575 130.614 802.575 129.523V125.841C802.404 126.045 802.029 126.233 801.45 126.403C800.881 126.562 800.222 126.705 799.472 126.83C798.734 126.943 798.012 127.045 797.308 127.136C796.614 127.216 796.052 127.284 795.62 127.341C794.575 127.477 793.597 127.699 792.688 128.006C791.79 128.301 791.063 128.75 790.506 129.352C789.961 129.943 789.688 130.75 789.688 131.773C789.688 133.17 790.205 134.227 791.239 134.943C792.285 135.648 793.609 136 795.211 136ZM813.94 139V112.818H817.826V116.909H818.167C818.712 115.511 819.593 114.426 820.809 113.653C822.025 112.869 823.485 112.477 825.19 112.477C826.917 112.477 828.354 112.869 829.502 113.653C830.661 114.426 831.565 115.511 832.212 116.909H832.485C833.156 115.557 834.161 114.483 835.502 113.688C836.843 112.881 838.451 112.477 840.326 112.477C842.667 112.477 844.582 113.21 846.07 114.676C847.559 116.131 848.303 118.398 848.303 121.477V139H844.281V121.477C844.281 119.545 843.752 118.165 842.695 117.335C841.638 116.506 840.394 116.091 838.962 116.091C837.121 116.091 835.695 116.648 834.684 117.761C833.673 118.864 833.167 120.261 833.167 121.955V139H829.076V121.068C829.076 119.58 828.593 118.381 827.627 117.472C826.661 116.551 825.417 116.091 823.894 116.091C822.849 116.091 821.871 116.369 820.962 116.926C820.065 117.483 819.337 118.256 818.781 119.244C818.235 120.222 817.962 121.352 817.962 122.636V139H813.94ZM866.636 139.545C864.113 139.545 861.937 138.989 860.107 137.875C858.289 136.75 856.886 135.182 855.897 133.17C854.92 131.148 854.431 128.795 854.431 126.114C854.431 123.432 854.92 121.068 855.897 119.023C856.886 116.966 858.261 115.364 860.022 114.216C861.795 113.057 863.863 112.477 866.227 112.477C867.59 112.477 868.937 112.705 870.266 113.159C871.596 113.614 872.806 114.352 873.897 115.375C874.988 116.386 875.857 117.727 876.505 119.398C877.153 121.068 877.477 123.125 877.477 125.568V127.273H857.295V123.795H873.386C873.386 122.318 873.09 121 872.499 119.841C871.92 118.682 871.09 117.767 870.011 117.097C868.942 116.426 867.681 116.091 866.227 116.091C864.624 116.091 863.238 116.489 862.067 117.284C860.908 118.068 860.016 119.091 859.391 120.352C858.766 121.614 858.454 122.966 858.454 124.409V126.727C858.454 128.705 858.795 130.381 859.477 131.756C860.17 133.119 861.13 134.159 862.357 134.875C863.585 135.58 865.011 135.932 866.636 135.932C867.692 135.932 868.647 135.784 869.499 135.489C870.363 135.182 871.107 134.727 871.732 134.125C872.357 133.511 872.84 132.75 873.181 131.841L877.067 132.932C876.658 134.25 875.971 135.409 875.005 136.409C874.039 137.398 872.846 138.17 871.425 138.727C870.005 139.273 868.408 139.545 866.636 139.545Z" fill="white"/>
<path d="M686.099 234.818C685.895 233.091 685.065 231.75 683.611 230.795C682.156 229.841 680.372 229.364 678.259 229.364C676.713 229.364 675.361 229.614 674.202 230.114C673.054 230.614 672.156 231.301 671.509 232.176C670.872 233.051 670.554 234.045 670.554 235.159C670.554 236.091 670.776 236.892 671.219 237.562C671.673 238.222 672.253 238.773 672.957 239.216C673.662 239.648 674.401 240.006 675.173 240.29C675.946 240.562 676.656 240.784 677.304 240.955L680.849 241.909C681.759 242.148 682.77 242.477 683.884 242.898C685.009 243.318 686.082 243.892 687.105 244.619C688.139 245.335 688.991 246.256 689.662 247.381C690.332 248.506 690.668 249.886 690.668 251.523C690.668 253.409 690.173 255.114 689.185 256.636C688.207 258.159 686.776 259.369 684.889 260.267C683.014 261.165 680.736 261.614 678.054 261.614C675.554 261.614 673.389 261.21 671.56 260.403C669.741 259.597 668.31 258.472 667.264 257.028C666.23 255.585 665.645 253.909 665.509 252H669.872C669.986 253.318 670.429 254.409 671.202 255.273C671.986 256.125 672.974 256.761 674.168 257.182C675.372 257.591 676.668 257.795 678.054 257.795C679.668 257.795 681.116 257.534 682.401 257.011C683.685 256.477 684.702 255.739 685.452 254.795C686.202 253.841 686.577 252.727 686.577 251.455C686.577 250.295 686.253 249.352 685.605 248.625C684.957 247.898 684.105 247.307 683.048 246.852C681.991 246.398 680.849 246 679.622 245.659L675.327 244.432C672.599 243.648 670.44 242.528 668.849 241.074C667.259 239.619 666.463 237.716 666.463 235.364C666.463 233.409 666.991 231.705 668.048 230.25C669.116 228.784 670.548 227.648 672.344 226.841C674.151 226.023 676.168 225.614 678.395 225.614C680.645 225.614 682.645 226.017 684.395 226.824C686.145 227.619 687.531 228.71 688.554 230.097C689.588 231.483 690.134 233.057 690.19 234.818H686.099ZM707.709 261.545C705.254 261.545 703.141 260.966 701.368 259.807C699.595 258.648 698.232 257.051 697.277 255.017C696.322 252.983 695.845 250.659 695.845 248.045C695.845 245.386 696.334 243.04 697.311 241.006C698.3 238.96 699.675 237.364 701.436 236.216C703.209 235.057 705.277 234.477 707.641 234.477C709.482 234.477 711.141 234.818 712.618 235.5C714.095 236.182 715.305 237.136 716.249 238.364C717.192 239.591 717.777 241.023 718.004 242.659H713.982C713.675 241.466 712.993 240.409 711.936 239.489C710.891 238.557 709.482 238.091 707.709 238.091C706.141 238.091 704.766 238.5 703.584 239.318C702.413 240.125 701.499 241.267 700.839 242.744C700.192 244.21 699.868 245.932 699.868 247.909C699.868 249.932 700.186 251.693 700.822 253.193C701.47 254.693 702.379 255.858 703.55 256.688C704.732 257.517 706.118 257.932 707.709 257.932C708.754 257.932 709.703 257.75 710.555 257.386C711.408 257.023 712.129 256.5 712.72 255.818C713.311 255.136 713.732 254.318 713.982 253.364H718.004C717.777 254.909 717.214 256.301 716.317 257.54C715.43 258.767 714.254 259.744 712.788 260.472C711.334 261.188 709.641 261.545 707.709 261.545ZM723.885 261V234.818H727.771V238.773H728.044C728.521 237.477 729.385 236.426 730.635 235.619C731.885 234.812 733.294 234.409 734.862 234.409C735.158 234.409 735.527 234.415 735.97 234.426C736.413 234.437 736.749 234.455 736.976 234.477V238.568C736.839 238.534 736.527 238.483 736.038 238.415C735.561 238.335 735.055 238.295 734.521 238.295C733.249 238.295 732.112 238.562 731.112 239.097C730.124 239.619 729.339 240.347 728.76 241.278C728.192 242.199 727.908 243.25 727.908 244.432V261H723.885ZM751.925 261.545C749.402 261.545 747.226 260.989 745.396 259.875C743.578 258.75 742.175 257.182 741.186 255.17C740.209 253.148 739.72 250.795 739.72 248.114C739.72 245.432 740.209 243.068 741.186 241.023C742.175 238.966 743.55 237.364 745.311 236.216C747.084 235.057 749.152 234.477 751.516 234.477C752.879 234.477 754.226 234.705 755.555 235.159C756.885 235.614 758.095 236.352 759.186 237.375C760.277 238.386 761.146 239.727 761.794 241.398C762.442 243.068 762.766 245.125 762.766 247.568V249.273H742.584V245.795H758.675C758.675 244.318 758.379 243 757.788 241.841C757.209 240.682 756.379 239.767 755.3 239.097C754.232 238.426 752.97 238.091 751.516 238.091C749.913 238.091 748.527 238.489 747.357 239.284C746.197 240.068 745.305 241.091 744.68 242.352C744.055 243.614 743.743 244.966 743.743 246.409V248.727C743.743 250.705 744.084 252.381 744.766 253.756C745.459 255.119 746.419 256.159 747.646 256.875C748.874 257.58 750.3 257.932 751.925 257.932C752.982 257.932 753.936 257.784 754.788 257.489C755.652 257.182 756.396 256.727 757.021 256.125C757.646 255.511 758.129 254.75 758.47 253.841L762.357 254.932C761.947 256.25 761.26 257.409 760.294 258.409C759.328 259.398 758.135 260.17 756.714 260.727C755.294 261.273 753.697 261.545 751.925 261.545ZM779.862 261.545C777.339 261.545 775.163 260.989 773.334 259.875C771.516 258.75 770.112 257.182 769.124 255.17C768.146 253.148 767.658 250.795 767.658 248.114C767.658 245.432 768.146 243.068 769.124 241.023C770.112 238.966 771.487 237.364 773.249 236.216C775.021 235.057 777.089 234.477 779.453 234.477C780.817 234.477 782.163 234.705 783.493 235.159C784.822 235.614 786.033 236.352 787.124 237.375C788.214 238.386 789.084 239.727 789.732 241.398C790.379 243.068 790.703 245.125 790.703 247.568V249.273H770.521V245.795H786.612C786.612 244.318 786.317 243 785.726 241.841C785.146 240.682 784.317 239.767 783.237 239.097C782.169 238.426 780.908 238.091 779.453 238.091C777.851 238.091 776.464 238.489 775.294 239.284C774.135 240.068 773.243 241.091 772.618 242.352C771.993 243.614 771.68 244.966 771.68 246.409V248.727C771.68 250.705 772.021 252.381 772.703 253.756C773.396 255.119 774.357 256.159 775.584 256.875C776.811 257.58 778.237 257.932 779.862 257.932C780.919 257.932 781.874 257.784 782.726 257.489C783.589 257.182 784.334 256.727 784.959 256.125C785.584 255.511 786.067 254.75 786.408 253.841L790.294 254.932C789.885 256.25 789.197 257.409 788.232 258.409C787.266 259.398 786.072 260.17 784.652 260.727C783.232 261.273 781.635 261.545 779.862 261.545ZM800.845 245.25V261H796.822V234.818H800.709V238.909H801.05C801.663 237.58 802.595 236.511 803.845 235.705C805.095 234.886 806.709 234.477 808.686 234.477C810.459 234.477 812.01 234.841 813.339 235.568C814.669 236.284 815.703 237.375 816.442 238.841C817.18 240.295 817.55 242.136 817.55 244.364V261H813.527V244.636C813.527 242.58 812.993 240.977 811.925 239.83C810.857 238.67 809.391 238.091 807.527 238.091C806.243 238.091 805.095 238.369 804.084 238.926C803.084 239.483 802.294 240.295 801.714 241.364C801.135 242.432 800.845 243.727 800.845 245.25Z" fill="black"/>
<path d="M576.337 479V444.091H597.268V447.841H580.564V459.636H595.7V463.386H580.564V479H576.337ZM618.822 468.295V452.818H622.845V479H618.822V474.568H618.55C617.936 475.898 616.982 477.028 615.686 477.96C614.391 478.881 612.754 479.341 610.777 479.341C609.141 479.341 607.686 478.983 606.413 478.267C605.141 477.54 604.141 476.449 603.413 474.994C602.686 473.528 602.322 471.682 602.322 469.455V452.818H606.345V469.182C606.345 471.091 606.879 472.614 607.947 473.75C609.027 474.886 610.402 475.455 612.072 475.455C613.072 475.455 614.089 475.199 615.124 474.688C616.169 474.176 617.044 473.392 617.749 472.335C618.464 471.278 618.822 469.932 618.822 468.295ZM634.236 463.25V479H630.213V452.818H634.099V456.909H634.44C635.054 455.58 635.986 454.511 637.236 453.705C638.486 452.886 640.099 452.477 642.077 452.477C643.849 452.477 645.401 452.841 646.73 453.568C648.06 454.284 649.094 455.375 649.832 456.841C650.571 458.295 650.94 460.136 650.94 462.364V479H646.918V462.636C646.918 460.58 646.384 458.977 645.315 457.83C644.247 456.67 642.781 456.091 640.918 456.091C639.634 456.091 638.486 456.369 637.474 456.926C636.474 457.483 635.685 458.295 635.105 459.364C634.526 460.432 634.236 461.727 634.236 463.25ZM668.928 479.545C666.473 479.545 664.359 478.966 662.587 477.807C660.814 476.648 659.45 475.051 658.496 473.017C657.541 470.983 657.064 468.659 657.064 466.045C657.064 463.386 657.553 461.04 658.53 459.006C659.518 456.96 660.893 455.364 662.655 454.216C664.428 453.057 666.496 452.477 668.859 452.477C670.7 452.477 672.359 452.818 673.837 453.5C675.314 454.182 676.524 455.136 677.467 456.364C678.411 457.591 678.996 459.023 679.223 460.659H675.2C674.893 459.466 674.212 458.409 673.155 457.489C672.109 456.557 670.7 456.091 668.928 456.091C667.359 456.091 665.984 456.5 664.803 457.318C663.632 458.125 662.717 459.267 662.058 460.744C661.411 462.21 661.087 463.932 661.087 465.909C661.087 467.932 661.405 469.693 662.041 471.193C662.689 472.693 663.598 473.858 664.768 474.688C665.95 475.517 667.337 475.932 668.928 475.932C669.973 475.932 670.922 475.75 671.774 475.386C672.626 475.023 673.348 474.5 673.939 473.818C674.53 473.136 674.95 472.318 675.2 471.364H679.223C678.996 472.909 678.433 474.301 677.536 475.54C676.649 476.767 675.473 477.744 674.007 478.472C672.553 479.188 670.859 479.545 668.928 479.545ZM696.49 452.818V456.227H682.922V452.818H696.49ZM686.876 446.545H690.899V471.5C690.899 472.636 691.064 473.489 691.393 474.057C691.734 474.614 692.166 474.989 692.689 475.182C693.223 475.364 693.786 475.455 694.376 475.455C694.82 475.455 695.183 475.432 695.467 475.386C695.751 475.33 695.979 475.284 696.149 475.25L696.967 478.864C696.695 478.966 696.314 479.068 695.825 479.17C695.337 479.284 694.717 479.341 693.967 479.341C692.831 479.341 691.717 479.097 690.626 478.608C689.547 478.119 688.649 477.375 687.933 476.375C687.229 475.375 686.876 474.114 686.876 472.591V446.545ZM702.541 479V452.818H706.564V479H702.541ZM704.587 448.455C703.803 448.455 703.126 448.188 702.558 447.653C702.001 447.119 701.723 446.477 701.723 445.727C701.723 444.977 702.001 444.335 702.558 443.801C703.126 443.267 703.803 443 704.587 443C705.371 443 706.041 443.267 706.598 443.801C707.166 444.335 707.45 444.977 707.45 445.727C707.45 446.477 707.166 447.119 706.598 447.653C706.041 448.188 705.371 448.455 704.587 448.455ZM724.568 479.545C722.205 479.545 720.131 478.983 718.347 477.858C716.574 476.733 715.188 475.159 714.188 473.136C713.199 471.114 712.705 468.75 712.705 466.045C712.705 463.318 713.199 460.937 714.188 458.903C715.188 456.869 716.574 455.29 718.347 454.165C720.131 453.04 722.205 452.477 724.568 452.477C726.932 452.477 729 453.04 730.773 454.165C732.557 455.29 733.943 456.869 734.932 458.903C735.932 460.937 736.432 463.318 736.432 466.045C736.432 468.75 735.932 471.114 734.932 473.136C733.943 475.159 732.557 476.733 730.773 477.858C729 478.983 726.932 479.545 724.568 479.545ZM724.568 475.932C726.364 475.932 727.841 475.472 729 474.551C730.159 473.631 731.017 472.42 731.574 470.92C732.131 469.42 732.409 467.795 732.409 466.045C732.409 464.295 732.131 462.665 731.574 461.153C731.017 459.642 730.159 458.42 729 457.489C727.841 456.557 726.364 456.091 724.568 456.091C722.773 456.091 721.295 456.557 720.136 457.489C718.977 458.42 718.119 459.642 717.562 461.153C717.006 462.665 716.727 464.295 716.727 466.045C716.727 467.795 717.006 469.42 717.562 470.92C718.119 472.42 718.977 473.631 720.136 474.551C721.295 475.472 722.773 475.932 724.568 475.932ZM746.595 463.25V479H742.572V452.818H746.459V456.909H746.8C747.413 455.58 748.345 454.511 749.595 453.705C750.845 452.886 752.459 452.477 754.436 452.477C756.209 452.477 757.76 452.841 759.089 453.568C760.419 454.284 761.453 455.375 762.192 456.841C762.93 458.295 763.3 460.136 763.3 462.364V479H759.277V462.636C759.277 460.58 758.743 458.977 757.675 457.83C756.607 456.67 755.141 456.091 753.277 456.091C751.993 456.091 750.845 456.369 749.834 456.926C748.834 457.483 748.044 458.295 747.464 459.364C746.885 460.432 746.595 461.727 746.595 463.25ZM784.696 479V444.091H796.901C799.332 444.091 801.338 444.511 802.918 445.352C804.497 446.182 805.673 447.301 806.446 448.71C807.219 450.108 807.605 451.659 807.605 453.364C807.605 454.864 807.338 456.102 806.804 457.08C806.281 458.057 805.588 458.83 804.724 459.398C803.872 459.966 802.946 460.386 801.946 460.659V461C803.014 461.068 804.088 461.443 805.168 462.125C806.247 462.807 807.151 463.784 807.878 465.057C808.605 466.33 808.969 467.886 808.969 469.727C808.969 471.477 808.571 473.051 807.776 474.449C806.98 475.847 805.724 476.955 804.009 477.773C802.293 478.591 800.06 479 797.31 479H784.696ZM788.923 475.25H797.31C800.071 475.25 802.031 474.716 803.19 473.648C804.361 472.568 804.946 471.261 804.946 469.727C804.946 468.545 804.645 467.455 804.043 466.455C803.44 465.443 802.582 464.636 801.469 464.034C800.355 463.42 799.037 463.114 797.514 463.114H788.923V475.25ZM788.923 459.432H796.764C798.037 459.432 799.185 459.182 800.207 458.682C801.241 458.182 802.06 457.477 802.662 456.568C803.276 455.659 803.582 454.591 803.582 453.364C803.582 451.83 803.048 450.528 801.98 449.46C800.912 448.381 799.219 447.841 796.901 447.841H788.923V459.432ZM831.869 468.295V452.818H835.892V479H831.869V474.568H831.597C830.983 475.898 830.028 477.028 828.733 477.96C827.438 478.881 825.801 479.341 823.824 479.341C822.188 479.341 820.733 478.983 819.46 478.267C818.188 477.54 817.188 476.449 816.46 474.994C815.733 473.528 815.369 471.682 815.369 469.455V452.818H819.392V469.182C819.392 471.091 819.926 472.614 820.994 473.75C822.074 474.886 823.449 475.455 825.119 475.455C826.119 475.455 827.136 475.199 828.17 474.688C829.216 474.176 830.091 473.392 830.795 472.335C831.511 471.278 831.869 469.932 831.869 468.295ZM854.646 452.818V456.227H841.078V452.818H854.646ZM845.033 446.545H849.055V471.5C849.055 472.636 849.22 473.489 849.55 474.057C849.891 474.614 850.322 474.989 850.845 475.182C851.379 475.364 851.942 475.455 852.533 475.455C852.976 475.455 853.339 475.432 853.624 475.386C853.908 475.33 854.135 475.284 854.305 475.25L855.124 478.864C854.851 478.966 854.47 479.068 853.982 479.17C853.493 479.284 852.874 479.341 852.124 479.341C850.987 479.341 849.874 479.097 848.783 478.608C847.703 478.119 846.805 477.375 846.089 476.375C845.385 475.375 845.033 474.114 845.033 472.591V446.545ZM872.084 452.818V456.227H858.516V452.818H872.084ZM862.47 446.545H866.493V471.5C866.493 472.636 866.658 473.489 866.987 474.057C867.328 474.614 867.76 474.989 868.283 475.182C868.817 475.364 869.379 475.455 869.97 475.455C870.413 475.455 870.777 475.432 871.061 475.386C871.345 475.33 871.572 475.284 871.743 475.25L872.561 478.864C872.288 478.966 871.908 479.068 871.419 479.17C870.93 479.284 870.311 479.341 869.561 479.341C868.425 479.341 867.311 479.097 866.22 478.608C865.141 478.119 864.243 477.375 863.527 476.375C862.822 475.375 862.47 474.114 862.47 472.591V446.545ZM888.49 479.545C886.126 479.545 884.053 478.983 882.268 477.858C880.496 476.733 879.109 475.159 878.109 473.136C877.121 471.114 876.626 468.75 876.626 466.045C876.626 463.318 877.121 460.937 878.109 458.903C879.109 456.869 880.496 455.29 882.268 454.165C884.053 453.04 886.126 452.477 888.49 452.477C890.854 452.477 892.922 453.04 894.695 454.165C896.479 455.29 897.865 456.869 898.854 458.903C899.854 460.937 900.354 463.318 900.354 466.045C900.354 468.75 899.854 471.114 898.854 473.136C897.865 475.159 896.479 476.733 894.695 477.858C892.922 478.983 890.854 479.545 888.49 479.545ZM888.49 475.932C890.286 475.932 891.763 475.472 892.922 474.551C894.081 473.631 894.939 472.42 895.496 470.92C896.053 469.42 896.331 467.795 896.331 466.045C896.331 464.295 896.053 462.665 895.496 461.153C894.939 459.642 894.081 458.42 892.922 457.489C891.763 456.557 890.286 456.091 888.49 456.091C886.695 456.091 885.217 456.557 884.058 457.489C882.899 458.42 882.041 459.642 881.484 461.153C880.928 462.665 880.649 464.295 880.649 466.045C880.649 467.795 880.928 469.42 881.484 470.92C882.041 472.42 882.899 473.631 884.058 474.551C885.217 475.472 886.695 475.932 888.49 475.932ZM910.517 463.25V479H906.494V452.818H910.381V456.909H910.722C911.335 455.58 912.267 454.511 913.517 453.705C914.767 452.886 916.381 452.477 918.358 452.477C920.131 452.477 921.682 452.841 923.011 453.568C924.341 454.284 925.375 455.375 926.114 456.841C926.852 458.295 927.222 460.136 927.222 462.364V479H923.199V462.636C923.199 460.58 922.665 458.977 921.597 457.83C920.528 456.67 919.063 456.091 917.199 456.091C915.915 456.091 914.767 456.369 913.756 456.926C912.756 457.483 911.966 458.295 911.386 459.364C910.807 460.432 910.517 461.727 910.517 463.25Z" fill="white"/>
<path d="M627.729 523.091V558H623.638L604.616 530.591H604.275V558H600.048V523.091H604.138L623.229 550.568H623.57V523.091H627.729ZM652.143 547.295V531.818H656.165V558H652.143V553.568H651.87C651.256 554.898 650.302 556.028 649.006 556.96C647.711 557.881 646.075 558.341 644.097 558.341C642.461 558.341 641.006 557.983 639.734 557.267C638.461 556.54 637.461 555.449 636.734 553.994C636.006 552.528 635.643 550.682 635.643 548.455V531.818H639.665V548.182C639.665 550.091 640.2 551.614 641.268 552.75C642.347 553.886 643.722 554.455 645.393 554.455C646.393 554.455 647.41 554.199 648.444 553.688C649.489 553.176 650.364 552.392 651.069 551.335C651.785 550.278 652.143 548.932 652.143 547.295ZM663.533 558V531.818H667.42V535.909H667.761C668.306 534.511 669.187 533.426 670.403 532.653C671.619 531.869 673.079 531.477 674.783 531.477C676.511 531.477 677.948 531.869 679.096 532.653C680.255 533.426 681.158 534.511 681.806 535.909H682.079C682.749 534.557 683.755 533.483 685.096 532.688C686.437 531.881 688.045 531.477 689.92 531.477C692.261 531.477 694.175 532.21 695.664 533.676C697.153 535.131 697.897 537.398 697.897 540.477V558H693.874V540.477C693.874 538.545 693.346 537.165 692.289 536.335C691.232 535.506 689.988 535.091 688.556 535.091C686.715 535.091 685.289 535.648 684.278 536.761C683.266 537.864 682.761 539.261 682.761 540.955V558H678.67V540.068C678.67 538.58 678.187 537.381 677.221 536.472C676.255 535.551 675.011 535.091 673.488 535.091C672.442 535.091 671.465 535.369 670.556 535.926C669.658 536.483 668.931 537.256 668.374 538.244C667.829 539.222 667.556 540.352 667.556 541.636V558H663.533ZM705.798 558V523.091H709.82V535.977H710.161C710.457 535.523 710.866 534.943 711.388 534.239C711.923 533.523 712.684 532.886 713.673 532.33C714.673 531.761 716.025 531.477 717.729 531.477C719.934 531.477 721.877 532.028 723.559 533.131C725.241 534.233 726.553 535.795 727.496 537.818C728.44 539.841 728.911 542.227 728.911 544.977C728.911 547.75 728.44 550.153 727.496 552.188C726.553 554.21 725.246 555.778 723.576 556.892C721.906 557.994 719.979 558.545 717.798 558.545C716.116 558.545 714.769 558.267 713.758 557.71C712.746 557.142 711.968 556.5 711.423 555.784C710.877 555.057 710.457 554.455 710.161 553.977H709.684V558H705.798ZM709.752 544.909C709.752 546.886 710.042 548.631 710.621 550.142C711.201 551.642 712.048 552.818 713.161 553.67C714.275 554.511 715.638 554.932 717.252 554.932C718.934 554.932 720.337 554.489 721.462 553.602C722.599 552.705 723.451 551.5 724.019 549.989C724.599 548.466 724.888 546.773 724.888 544.909C724.888 543.068 724.604 541.409 724.036 539.932C723.479 538.443 722.633 537.267 721.496 536.403C720.371 535.528 718.957 535.091 717.252 535.091C715.616 535.091 714.241 535.506 713.127 536.335C712.013 537.153 711.173 538.301 710.604 539.778C710.036 541.244 709.752 542.955 709.752 544.909ZM746.042 558.545C743.519 558.545 741.343 557.989 739.513 556.875C737.695 555.75 736.292 554.182 735.303 552.17C734.326 550.148 733.837 547.795 733.837 545.114C733.837 542.432 734.326 540.068 735.303 538.023C736.292 535.966 737.667 534.364 739.428 533.216C741.201 532.057 743.269 531.477 745.633 531.477C746.996 531.477 748.343 531.705 749.673 532.159C751.002 532.614 752.212 533.352 753.303 534.375C754.394 535.386 755.263 536.727 755.911 538.398C756.559 540.068 756.883 542.125 756.883 544.568V546.273H736.701V542.795H752.792C752.792 541.318 752.496 540 751.906 538.841C751.326 537.682 750.496 536.767 749.417 536.097C748.349 535.426 747.087 535.091 745.633 535.091C744.031 535.091 742.644 535.489 741.474 536.284C740.315 537.068 739.423 538.091 738.798 539.352C738.173 540.614 737.86 541.966 737.86 543.409V545.727C737.86 547.705 738.201 549.381 738.883 550.756C739.576 552.119 740.536 553.159 741.763 553.875C742.991 554.58 744.417 554.932 746.042 554.932C747.099 554.932 748.053 554.784 748.906 554.489C749.769 554.182 750.513 553.727 751.138 553.125C751.763 552.511 752.246 551.75 752.587 550.841L756.474 551.932C756.065 553.25 755.377 554.409 754.411 555.409C753.445 556.398 752.252 557.17 750.832 557.727C749.411 558.273 747.815 558.545 746.042 558.545ZM763.002 558V531.818H766.888V535.773H767.161C767.638 534.477 768.502 533.426 769.752 532.619C771.002 531.812 772.411 531.409 773.979 531.409C774.275 531.409 774.644 531.415 775.087 531.426C775.531 531.437 775.866 531.455 776.093 531.477V535.568C775.957 535.534 775.644 535.483 775.156 535.415C774.678 535.335 774.173 535.295 773.638 535.295C772.366 535.295 771.229 535.562 770.229 536.097C769.241 536.619 768.457 537.347 767.877 538.278C767.309 539.199 767.025 540.25 767.025 541.432V558H763.002ZM602.977 616V581.091H615.182C617.614 581.091 619.619 581.511 621.199 582.352C622.778 583.182 623.955 584.301 624.727 585.71C625.5 587.108 625.886 588.659 625.886 590.364C625.886 591.864 625.619 593.102 625.085 594.08C624.563 595.057 623.869 595.83 623.006 596.398C622.153 596.966 621.227 597.386 620.227 597.659V598C621.295 598.068 622.369 598.443 623.449 599.125C624.528 599.807 625.432 600.784 626.159 602.057C626.886 603.33 627.25 604.886 627.25 606.727C627.25 608.477 626.852 610.051 626.057 611.449C625.261 612.847 624.006 613.955 622.29 614.773C620.574 615.591 618.341 616 615.591 616H602.977ZM607.205 612.25H615.591C618.352 612.25 620.313 611.716 621.472 610.648C622.642 609.568 623.227 608.261 623.227 606.727C623.227 605.545 622.926 604.455 622.324 603.455C621.722 602.443 620.864 601.636 619.75 601.034C618.636 600.42 617.318 600.114 615.795 600.114H607.205V612.25ZM607.205 596.432H615.045C616.318 596.432 617.466 596.182 618.489 595.682C619.523 595.182 620.341 594.477 620.943 593.568C621.557 592.659 621.864 591.591 621.864 590.364C621.864 588.83 621.33 587.528 620.261 586.46C619.193 585.381 617.5 584.841 615.182 584.841H607.205V596.432ZM650.151 605.295V589.818H654.173V616H650.151V611.568H649.878C649.264 612.898 648.31 614.028 647.014 614.96C645.719 615.881 644.082 616.341 642.105 616.341C640.469 616.341 639.014 615.983 637.741 615.267C636.469 614.54 635.469 613.449 634.741 611.994C634.014 610.528 633.651 608.682 633.651 606.455V589.818H637.673V606.182C637.673 608.091 638.207 609.614 639.276 610.75C640.355 611.886 641.73 612.455 643.401 612.455C644.401 612.455 645.418 612.199 646.452 611.688C647.497 611.176 648.372 610.392 649.077 609.335C649.793 608.278 650.151 606.932 650.151 605.295ZM672.928 589.818V593.227H659.359V589.818H672.928ZM663.314 583.545H667.337V608.5C667.337 609.636 667.501 610.489 667.831 611.057C668.172 611.614 668.604 611.989 669.126 612.182C669.661 612.364 670.223 612.455 670.814 612.455C671.257 612.455 671.621 612.432 671.905 612.386C672.189 612.33 672.416 612.284 672.587 612.25L673.405 615.864C673.132 615.966 672.751 616.068 672.263 616.17C671.774 616.284 671.155 616.341 670.405 616.341C669.268 616.341 668.155 616.097 667.064 615.608C665.984 615.119 665.087 614.375 664.371 613.375C663.666 612.375 663.314 611.114 663.314 609.591V583.545ZM690.365 589.818V593.227H676.797V589.818H690.365ZM680.751 583.545H684.774V608.5C684.774 609.636 684.939 610.489 685.268 611.057C685.609 611.614 686.041 611.989 686.564 612.182C687.098 612.364 687.661 612.455 688.251 612.455C688.695 612.455 689.058 612.432 689.342 612.386C689.626 612.33 689.854 612.284 690.024 612.25L690.842 615.864C690.57 615.966 690.189 616.068 689.7 616.17C689.212 616.284 688.592 616.341 687.842 616.341C686.706 616.341 685.592 616.097 684.501 615.608C683.422 615.119 682.524 614.375 681.808 613.375C681.104 612.375 680.751 611.114 680.751 609.591V583.545ZM706.771 616.545C704.408 616.545 702.334 615.983 700.55 614.858C698.777 613.733 697.391 612.159 696.391 610.136C695.402 608.114 694.908 605.75 694.908 603.045C694.908 600.318 695.402 597.937 696.391 595.903C697.391 593.869 698.777 592.29 700.55 591.165C702.334 590.04 704.408 589.477 706.771 589.477C709.135 589.477 711.203 590.04 712.976 591.165C714.76 592.29 716.146 593.869 717.135 595.903C718.135 597.937 718.635 600.318 718.635 603.045C718.635 605.75 718.135 608.114 717.135 610.136C716.146 612.159 714.76 613.733 712.976 614.858C711.203 615.983 709.135 616.545 706.771 616.545ZM706.771 612.932C708.567 612.932 710.044 612.472 711.203 611.551C712.362 610.631 713.22 609.42 713.777 607.92C714.334 606.42 714.612 604.795 714.612 603.045C714.612 601.295 714.334 599.665 713.777 598.153C713.22 596.642 712.362 595.42 711.203 594.489C710.044 593.557 708.567 593.091 706.771 593.091C704.976 593.091 703.499 593.557 702.339 594.489C701.18 595.42 700.322 596.642 699.766 598.153C699.209 599.665 698.93 601.295 698.93 603.045C698.93 604.795 699.209 606.42 699.766 607.92C700.322 609.42 701.18 610.631 702.339 611.551C703.499 612.472 704.976 612.932 706.771 612.932ZM728.798 600.25V616H724.776V589.818H728.662V593.909H729.003C729.616 592.58 730.548 591.511 731.798 590.705C733.048 589.886 734.662 589.477 736.639 589.477C738.412 589.477 739.963 589.841 741.293 590.568C742.622 591.284 743.656 592.375 744.395 593.841C745.134 595.295 745.503 597.136 745.503 599.364V616H741.48V599.636C741.48 597.58 740.946 595.977 739.878 594.83C738.81 593.67 737.344 593.091 735.48 593.091C734.196 593.091 733.048 593.369 732.037 593.926C731.037 594.483 730.247 595.295 729.668 596.364C729.088 597.432 728.798 598.727 728.798 600.25ZM771.399 595.682L767.786 596.705C767.558 596.102 767.223 595.517 766.78 594.949C766.348 594.369 765.757 593.892 765.007 593.517C764.257 593.142 763.297 592.955 762.126 592.955C760.524 592.955 759.189 593.324 758.121 594.062C757.064 594.79 756.536 595.716 756.536 596.841C756.536 597.841 756.899 598.631 757.626 599.21C758.354 599.79 759.49 600.273 761.036 600.659L764.922 601.614C767.263 602.182 769.007 603.051 770.155 604.222C771.303 605.381 771.876 606.875 771.876 608.705C771.876 610.205 771.445 611.545 770.581 612.727C769.729 613.909 768.536 614.841 767.001 615.523C765.467 616.205 763.683 616.545 761.649 616.545C758.979 616.545 756.768 615.966 755.018 614.807C753.268 613.648 752.161 611.955 751.695 609.727L755.513 608.773C755.876 610.182 756.564 611.239 757.575 611.943C758.598 612.648 759.933 613 761.581 613C763.456 613 764.945 612.602 766.047 611.807C767.161 611 767.717 610.034 767.717 608.909C767.717 608 767.399 607.239 766.763 606.625C766.126 606 765.149 605.534 763.831 605.227L759.467 604.205C757.07 603.636 755.308 602.756 754.183 601.562C753.07 600.358 752.513 598.852 752.513 597.045C752.513 595.568 752.928 594.261 753.757 593.125C754.598 591.989 755.74 591.097 757.183 590.449C758.638 589.801 760.286 589.477 762.126 589.477C764.717 589.477 766.751 590.045 768.229 591.182C769.717 592.318 770.774 593.818 771.399 595.682Z" fill="black"/>
<path d="M962.776 558.545C962.776 562.227 962.111 565.409 960.781 568.091C959.452 570.773 957.628 572.841 955.31 574.295C952.991 575.75 950.344 576.477 947.366 576.477C944.389 576.477 941.741 575.75 939.423 574.295C937.105 572.841 935.281 570.773 933.952 568.091C932.622 565.409 931.957 562.227 931.957 558.545C931.957 554.864 932.622 551.682 933.952 549C935.281 546.318 937.105 544.25 939.423 542.795C941.741 541.341 944.389 540.614 947.366 540.614C950.344 540.614 952.991 541.341 955.31 542.795C957.628 544.25 959.452 546.318 960.781 549C962.111 551.682 962.776 554.864 962.776 558.545ZM958.685 558.545C958.685 555.523 958.179 552.972 957.168 550.892C956.168 548.812 954.81 547.239 953.094 546.17C951.389 545.102 949.48 544.568 947.366 544.568C945.253 544.568 943.338 545.102 941.622 546.17C939.918 547.239 938.56 548.812 937.548 550.892C936.548 552.972 936.048 555.523 936.048 558.545C936.048 561.568 936.548 564.119 937.548 566.199C938.56 568.278 939.918 569.852 941.622 570.92C943.338 571.989 945.253 572.523 947.366 572.523C949.48 572.523 951.389 571.989 953.094 570.92C954.81 569.852 956.168 568.278 957.168 566.199C958.179 564.119 958.685 561.568 958.685 558.545ZM969.338 585.818V549.818H973.224V553.977H973.702C973.997 553.523 974.406 552.943 974.929 552.239C975.463 551.523 976.224 550.886 977.213 550.33C978.213 549.761 979.565 549.477 981.27 549.477C983.474 549.477 985.418 550.028 987.099 551.131C988.781 552.233 990.094 553.795 991.037 555.818C991.98 557.841 992.452 560.227 992.452 562.977C992.452 565.75 991.98 568.153 991.037 570.188C990.094 572.21 988.787 573.778 987.116 574.892C985.446 575.994 983.52 576.545 981.338 576.545C979.656 576.545 978.31 576.267 977.298 575.71C976.287 575.142 975.509 574.5 974.963 573.784C974.418 573.057 973.997 572.455 973.702 571.977H973.361V585.818H969.338ZM973.293 562.909C973.293 564.886 973.582 566.631 974.162 568.142C974.741 569.642 975.588 570.818 976.702 571.67C977.815 572.511 979.179 572.932 980.793 572.932C982.474 572.932 983.878 572.489 985.003 571.602C986.139 570.705 986.991 569.5 987.56 567.989C988.139 566.466 988.429 564.773 988.429 562.909C988.429 561.068 988.145 559.409 987.577 557.932C987.02 556.443 986.173 555.267 985.037 554.403C983.912 553.528 982.497 553.091 980.793 553.091C979.156 553.091 977.781 553.506 976.668 554.335C975.554 555.153 974.713 556.301 974.145 557.778C973.577 559.244 973.293 560.955 973.293 562.909ZM940.237 634.545C937.714 634.545 935.538 633.989 933.709 632.875C931.891 631.75 930.487 630.182 929.499 628.17C928.521 626.148 928.033 623.795 928.033 621.114C928.033 618.432 928.521 616.068 929.499 614.023C930.487 611.966 931.862 610.364 933.624 609.216C935.396 608.057 937.464 607.477 939.828 607.477C941.192 607.477 942.538 607.705 943.868 608.159C945.197 608.614 946.408 609.352 947.499 610.375C948.589 611.386 949.459 612.727 950.107 614.398C950.754 616.068 951.078 618.125 951.078 620.568V622.273H930.896V618.795H946.987C946.987 617.318 946.692 616 946.101 614.841C945.521 613.682 944.692 612.767 943.612 612.097C942.544 611.426 941.283 611.091 939.828 611.091C938.226 611.091 936.839 611.489 935.669 612.284C934.51 613.068 933.618 614.091 932.993 615.352C932.368 616.614 932.055 617.966 932.055 619.409V621.727C932.055 623.705 932.396 625.381 933.078 626.756C933.771 628.119 934.732 629.159 935.959 629.875C937.186 630.58 938.612 630.932 940.237 630.932C941.294 630.932 942.249 630.784 943.101 630.489C943.964 630.182 944.709 629.727 945.334 629.125C945.959 628.511 946.442 627.75 946.783 626.841L950.669 627.932C950.26 629.25 949.572 630.409 948.607 631.409C947.641 632.398 946.447 633.17 945.027 633.727C943.607 634.273 942.01 634.545 940.237 634.545ZM957.197 634V607.818H961.084V611.773H961.357C961.834 610.477 962.697 609.426 963.947 608.619C965.197 607.812 966.607 607.409 968.175 607.409C968.47 607.409 968.839 607.415 969.283 607.426C969.726 607.437 970.061 607.455 970.288 607.477V611.568C970.152 611.534 969.839 611.483 969.351 611.415C968.874 611.335 968.368 611.295 967.834 611.295C966.561 611.295 965.425 611.562 964.425 612.097C963.436 612.619 962.652 613.347 962.072 614.278C961.504 615.199 961.22 616.25 961.22 617.432V634H957.197ZM982.761 634.614C981.102 634.614 979.597 634.301 978.244 633.676C976.892 633.04 975.818 632.125 975.023 630.932C974.227 629.727 973.83 628.273 973.83 626.568C973.83 625.068 974.125 623.852 974.716 622.92C975.307 621.977 976.097 621.239 977.085 620.705C978.074 620.17 979.165 619.773 980.358 619.511C981.563 619.239 982.773 619.023 983.989 618.864C985.58 618.659 986.869 618.506 987.858 618.403C988.858 618.29 989.585 618.102 990.04 617.841C990.506 617.58 990.739 617.125 990.739 616.477V616.341C990.739 614.659 990.278 613.352 989.358 612.42C988.449 611.489 987.068 611.023 985.216 611.023C983.295 611.023 981.79 611.443 980.699 612.284C979.608 613.125 978.841 614.023 978.398 614.977L974.58 613.614C975.261 612.023 976.17 610.784 977.307 609.898C978.455 609 979.705 608.375 981.057 608.023C982.42 607.659 983.761 607.477 985.08 607.477C985.92 607.477 986.886 607.58 987.977 607.784C989.08 607.977 990.142 608.381 991.165 608.994C992.199 609.608 993.057 610.534 993.739 611.773C994.42 613.011 994.761 614.67 994.761 616.75V634H990.739V630.455H990.534C990.261 631.023 989.807 631.631 989.17 632.278C988.534 632.926 987.688 633.477 986.631 633.932C985.574 634.386 984.284 634.614 982.761 634.614ZM983.375 631C984.966 631 986.307 630.688 987.398 630.062C988.5 629.438 989.33 628.631 989.886 627.642C990.455 626.653 990.739 625.614 990.739 624.523V620.841C990.568 621.045 990.193 621.233 989.614 621.403C989.045 621.562 988.386 621.705 987.636 621.83C986.898 621.943 986.176 622.045 985.472 622.136C984.778 622.216 984.216 622.284 983.784 622.341C982.739 622.477 981.761 622.699 980.852 623.006C979.955 623.301 979.227 623.75 978.67 624.352C978.125 624.943 977.852 625.75 977.852 626.773C977.852 628.17 978.369 629.227 979.403 629.943C980.449 630.648 981.773 631 983.375 631ZM945.24 665.818V669.227H931.672V665.818H945.24ZM935.626 659.545H939.649V684.5C939.649 685.636 939.814 686.489 940.143 687.057C940.484 687.614 940.916 687.989 941.439 688.182C941.973 688.364 942.536 688.455 943.126 688.455C943.57 688.455 943.933 688.432 944.217 688.386C944.501 688.33 944.729 688.284 944.899 688.25L945.717 691.864C945.445 691.966 945.064 692.068 944.575 692.17C944.087 692.284 943.467 692.341 942.717 692.341C941.581 692.341 940.467 692.097 939.376 691.608C938.297 691.119 937.399 690.375 936.683 689.375C935.979 688.375 935.626 687.114 935.626 685.591V659.545ZM961.646 692.545C959.283 692.545 957.209 691.983 955.425 690.858C953.652 689.733 952.266 688.159 951.266 686.136C950.277 684.114 949.783 681.75 949.783 679.045C949.783 676.318 950.277 673.937 951.266 671.903C952.266 669.869 953.652 668.29 955.425 667.165C957.209 666.04 959.283 665.477 961.646 665.477C964.01 665.477 966.078 666.04 967.851 667.165C969.635 668.29 971.021 669.869 972.01 671.903C973.01 673.937 973.51 676.318 973.51 679.045C973.51 681.75 973.01 684.114 972.01 686.136C971.021 688.159 969.635 689.733 967.851 690.858C966.078 691.983 964.01 692.545 961.646 692.545ZM961.646 688.932C963.442 688.932 964.919 688.472 966.078 687.551C967.237 686.631 968.095 685.42 968.652 683.92C969.209 682.42 969.487 680.795 969.487 679.045C969.487 677.295 969.209 675.665 968.652 674.153C968.095 672.642 967.237 671.42 966.078 670.489C964.919 669.557 963.442 669.091 961.646 669.091C959.851 669.091 958.374 669.557 957.214 670.489C956.055 671.42 955.197 672.642 954.641 674.153C954.084 675.665 953.805 677.295 953.805 679.045C953.805 680.795 954.084 682.42 954.641 683.92C955.197 685.42 956.055 686.631 957.214 687.551C958.374 688.472 959.851 688.932 961.646 688.932ZM979.651 692V665.818H983.537V669.773H983.81C984.287 668.477 985.151 667.426 986.401 666.619C987.651 665.812 989.06 665.409 990.628 665.409C990.923 665.409 991.293 665.415 991.736 665.426C992.179 665.437 992.514 665.455 992.741 665.477V669.568C992.605 669.534 992.293 669.483 991.804 669.415C991.327 669.335 990.821 669.295 990.287 669.295C989.014 669.295 987.878 669.562 986.878 670.097C985.889 670.619 985.105 671.347 984.526 672.278C983.957 673.199 983.673 674.25 983.673 675.432V692H979.651ZM971.688 729.682L968.075 730.705C967.847 730.102 967.512 729.517 967.069 728.949C966.637 728.369 966.046 727.892 965.296 727.517C964.546 727.142 963.586 726.955 962.415 726.955C960.813 726.955 959.478 727.324 958.41 728.062C957.353 728.79 956.825 729.716 956.825 730.841C956.825 731.841 957.188 732.631 957.915 733.21C958.643 733.79 959.779 734.273 961.325 734.659L965.211 735.614C967.552 736.182 969.296 737.051 970.444 738.222C971.592 739.381 972.165 740.875 972.165 742.705C972.165 744.205 971.734 745.545 970.87 746.727C970.018 747.909 968.825 748.841 967.29 749.523C965.756 750.205 963.972 750.545 961.938 750.545C959.268 750.545 957.058 749.966 955.308 748.807C953.558 747.648 952.45 745.955 951.984 743.727L955.802 742.773C956.165 744.182 956.853 745.239 957.864 745.943C958.887 746.648 960.222 747 961.87 747C963.745 747 965.234 746.602 966.336 745.807C967.45 745 968.006 744.034 968.006 742.909C968.006 742 967.688 741.239 967.052 740.625C966.415 740 965.438 739.534 964.12 739.227L959.756 738.205C957.359 737.636 955.597 736.756 954.472 735.562C953.359 734.358 952.802 732.852 952.802 731.045C952.802 729.568 953.217 728.261 954.046 727.125C954.887 725.989 956.029 725.097 957.472 724.449C958.927 723.801 960.575 723.477 962.415 723.477C965.006 723.477 967.04 724.045 968.518 725.182C970.006 726.318 971.063 727.818 971.688 729.682Z" fill="black"/>
</svg>
