<svg width="1440" height="1024" viewBox="0 0 1440 1024" fill="none" xmlns="http://www.w3.org/2000/svg">
<rect width="1440" height="1024" fill="#E5E5E5"/>
<rect width="1440" height="1024" fill="white"/>
<rect y="870" width="1440" height="154" fill="#C4C4C4"/>
<rect x="418" y="390" width="641" height="392" fill="#9C9C9C"/>
<rect x="418" y="55" width="641" height="335" fill="#C4C4C4"/>
<path d="M637.212 950V915.091H658.143V918.841H641.439V930.636H656.575V934.386H641.439V950H637.212ZM694.838 932.545C694.838 936.227 694.173 939.409 692.844 942.091C691.514 944.773 689.69 946.841 687.372 948.295C685.054 949.75 682.406 950.477 679.429 950.477C676.452 950.477 673.804 949.75 671.486 948.295C669.168 946.841 667.344 944.773 666.014 942.091C664.685 939.409 664.02 936.227 664.02 932.545C664.02 928.864 664.685 925.682 666.014 923C667.344 920.318 669.168 918.25 671.486 916.795C673.804 915.341 676.452 914.614 679.429 914.614C682.406 914.614 685.054 915.341 687.372 916.795C689.69 918.25 691.514 920.318 692.844 923C694.173 925.682 694.838 928.864 694.838 932.545ZM690.747 932.545C690.747 929.523 690.241 926.972 689.23 924.892C688.23 922.812 686.872 921.239 685.156 920.17C683.452 919.102 681.543 918.568 679.429 918.568C677.315 918.568 675.401 919.102 673.685 920.17C671.98 921.239 670.622 922.812 669.611 924.892C668.611 926.972 668.111 929.523 668.111 932.545C668.111 935.568 668.611 938.119 669.611 940.199C670.622 942.278 671.98 943.852 673.685 944.92C675.401 945.989 677.315 946.523 679.429 946.523C681.543 946.523 683.452 945.989 685.156 944.92C686.872 943.852 688.23 942.278 689.23 940.199C690.241 938.119 690.747 935.568 690.747 932.545ZM731.401 932.545C731.401 936.227 730.736 939.409 729.406 942.091C728.077 944.773 726.253 946.841 723.935 948.295C721.616 949.75 718.969 950.477 715.991 950.477C713.014 950.477 710.366 949.75 708.048 948.295C705.73 946.841 703.906 944.773 702.577 942.091C701.247 939.409 700.582 936.227 700.582 932.545C700.582 928.864 701.247 925.682 702.577 923C703.906 920.318 705.73 918.25 708.048 916.795C710.366 915.341 713.014 914.614 715.991 914.614C718.969 914.614 721.616 915.341 723.935 916.795C726.253 918.25 728.077 920.318 729.406 923C730.736 925.682 731.401 928.864 731.401 932.545ZM727.31 932.545C727.31 929.523 726.804 926.972 725.793 924.892C724.793 922.812 723.435 921.239 721.719 920.17C720.014 919.102 718.105 918.568 715.991 918.568C713.878 918.568 711.963 919.102 710.247 920.17C708.543 921.239 707.185 922.812 706.173 924.892C705.173 926.972 704.673 929.523 704.673 932.545C704.673 935.568 705.173 938.119 706.173 940.199C707.185 942.278 708.543 943.852 710.247 944.92C711.963 945.989 713.878 946.523 715.991 946.523C718.105 946.523 720.014 945.989 721.719 944.92C723.435 943.852 724.793 942.278 725.793 940.199C726.804 938.119 727.31 935.568 727.31 932.545ZM735.146 918.841V915.091H761.328V918.841H750.351V950H746.124V918.841H735.146ZM767.852 950V915.091H788.92V918.841H772.08V930.636H787.83V934.386H772.08V946.25H789.193V950H767.852ZM796.54 950V915.091H808.335C811.063 915.091 813.301 915.557 815.051 916.489C816.801 917.409 818.097 918.676 818.938 920.29C819.778 921.903 820.199 923.739 820.199 925.795C820.199 927.852 819.778 929.676 818.938 931.267C818.097 932.858 816.807 934.108 815.068 935.017C813.33 935.915 811.108 936.364 808.403 936.364H798.858V932.545H808.267C810.131 932.545 811.631 932.273 812.767 931.727C813.915 931.182 814.744 930.409 815.256 929.409C815.778 928.398 816.04 927.193 816.04 925.795C816.04 924.398 815.778 923.176 815.256 922.131C814.733 921.085 813.898 920.278 812.75 919.71C811.602 919.131 810.085 918.841 808.199 918.841H800.767V950H796.54ZM812.972 934.318L821.562 950H816.653L808.199 934.318H812.972Z" fill="black"/>
<path d="M600.482 22H596.255C596.005 20.7841 595.567 19.7159 594.942 18.7955C594.329 17.875 593.579 17.1023 592.692 16.4773C591.817 15.8409 590.846 15.3636 589.778 15.0455C588.71 14.7273 587.596 14.5682 586.437 14.5682C584.323 14.5682 582.408 15.1023 580.692 16.1705C578.988 17.2386 577.63 18.8125 576.619 20.892C575.619 22.9716 575.119 25.5227 575.119 28.5455C575.119 31.5682 575.619 34.1193 576.619 36.1989C577.63 38.2784 578.988 39.8523 580.692 40.9205C582.408 41.9886 584.323 42.5227 586.437 42.5227C587.596 42.5227 588.71 42.3636 589.778 42.0455C590.846 41.7273 591.817 41.2557 592.692 40.6307C593.579 39.9943 594.329 39.2159 594.942 38.2955C595.567 37.3636 596.005 36.2955 596.255 35.0909H600.482C600.164 36.875 599.585 38.4716 598.744 39.8807C597.903 41.2898 596.857 42.4886 595.607 43.4773C594.357 44.4545 592.954 45.1989 591.397 45.7102C589.852 46.2216 588.198 46.4773 586.437 46.4773C583.46 46.4773 580.812 45.75 578.494 44.2955C576.175 42.8409 574.352 40.7727 573.022 38.0909C571.692 35.4091 571.028 32.2273 571.028 28.5455C571.028 24.8636 571.692 21.6818 573.022 19C574.352 16.3182 576.175 14.25 578.494 12.7955C580.812 11.3409 583.46 10.6136 586.437 10.6136C588.198 10.6136 589.852 10.8693 591.397 11.3807C592.954 11.892 594.357 12.642 595.607 13.6307C596.857 14.608 597.903 15.8011 598.744 17.2102C599.585 18.608 600.164 20.2045 600.482 22ZM608.745 46H604.313L617.131 11.0909H621.495L634.313 46H629.881L619.45 16.6136H619.177L608.745 46ZM610.381 32.3636H628.245V36.1136H610.381V32.3636ZM639.751 46V11.0909H643.978V42.25H660.205V46H639.751ZM693.482 22H689.255C689.005 20.7841 688.567 19.7159 687.942 18.7955C687.329 17.875 686.579 17.1023 685.692 16.4773C684.817 15.8409 683.846 15.3636 682.778 15.0455C681.71 14.7273 680.596 14.5682 679.437 14.5682C677.323 14.5682 675.408 15.1023 673.692 16.1705C671.988 17.2386 670.63 18.8125 669.619 20.892C668.619 22.9716 668.119 25.5227 668.119 28.5455C668.119 31.5682 668.619 34.1193 669.619 36.1989C670.63 38.2784 671.988 39.8523 673.692 40.9205C675.408 41.9886 677.323 42.5227 679.437 42.5227C680.596 42.5227 681.71 42.3636 682.778 42.0455C683.846 41.7273 684.817 41.2557 685.692 40.6307C686.579 39.9943 687.329 39.2159 687.942 38.2955C688.567 37.3636 689.005 36.2955 689.255 35.0909H693.482C693.164 36.875 692.585 38.4716 691.744 39.8807C690.903 41.2898 689.857 42.4886 688.607 43.4773C687.357 44.4545 685.954 45.1989 684.397 45.7102C682.852 46.2216 681.198 46.4773 679.437 46.4773C676.46 46.4773 673.812 45.75 671.494 44.2955C669.175 42.8409 667.352 40.7727 666.022 38.0909C664.692 35.4091 664.028 32.2273 664.028 28.5455C664.028 24.8636 664.692 21.6818 666.022 19C667.352 16.3182 669.175 14.25 671.494 12.7955C673.812 11.3409 676.46 10.6136 679.437 10.6136C681.198 10.6136 682.852 10.8693 684.397 11.3807C685.954 11.892 687.357 12.642 688.607 13.6307C689.857 14.608 690.903 15.8011 691.744 17.2102C692.585 18.608 693.164 20.2045 693.482 22ZM723.222 11.0909H727.45V34.2045C727.45 36.5909 726.887 38.7216 725.762 40.5966C724.648 42.4602 723.075 43.9318 721.04 45.0114C719.006 46.0795 716.62 46.6136 713.881 46.6136C711.143 46.6136 708.756 46.0795 706.722 45.0114C704.688 43.9318 703.109 42.4602 701.984 40.5966C700.87 38.7216 700.313 36.5909 700.313 34.2045V11.0909H704.54V33.8636C704.54 35.5682 704.915 37.0852 705.665 38.4148C706.415 39.733 707.484 40.7727 708.87 41.5341C710.268 42.2841 711.938 42.6591 713.881 42.6591C715.825 42.6591 717.495 42.2841 718.893 41.5341C720.29 40.7727 721.359 39.733 722.097 38.4148C722.847 37.0852 723.222 35.5682 723.222 33.8636V11.0909ZM735.891 46V11.0909H740.119V42.25H756.346V46H735.891ZM766.526 46H762.094L774.913 11.0909H779.276L792.094 46H787.663L777.231 16.6136H776.958L766.526 46ZM768.163 32.3636H786.026V36.1136H768.163V32.3636ZM791.545 14.8409V11.0909H817.727V14.8409H806.749V46H802.522V14.8409H791.545ZM852.252 28.5455C852.252 32.2273 851.587 35.4091 850.258 38.0909C848.928 40.7727 847.104 42.8409 844.786 44.2955C842.468 45.75 839.82 46.4773 836.843 46.4773C833.866 46.4773 831.218 45.75 828.9 44.2955C826.582 42.8409 824.758 40.7727 823.428 38.0909C822.099 35.4091 821.434 32.2273 821.434 28.5455C821.434 24.8636 822.099 21.6818 823.428 19C824.758 16.3182 826.582 14.25 828.9 12.7955C831.218 11.3409 833.866 10.6136 836.843 10.6136C839.82 10.6136 842.468 11.3409 844.786 12.7955C847.104 14.25 848.928 16.3182 850.258 19C851.587 21.6818 852.252 24.8636 852.252 28.5455ZM848.161 28.5455C848.161 25.5227 847.656 22.9716 846.644 20.892C845.644 18.8125 844.286 17.2386 842.57 16.1705C840.866 15.1023 838.957 14.5682 836.843 14.5682C834.729 14.5682 832.815 15.1023 831.099 16.1705C829.394 17.2386 828.036 18.8125 827.025 20.892C826.025 22.9716 825.525 25.5227 825.525 28.5455C825.525 31.5682 826.025 34.1193 827.025 36.1989C828.036 38.2784 829.394 39.8523 831.099 40.9205C832.815 41.9886 834.729 42.5227 836.843 42.5227C838.957 42.5227 840.866 41.9886 842.57 40.9205C844.286 39.8523 845.644 38.2784 846.644 36.1989C847.656 34.1193 848.161 31.5682 848.161 28.5455ZM859.36 46V11.0909H871.156C873.883 11.0909 876.121 11.5568 877.871 12.4886C879.621 13.4091 880.917 14.6761 881.758 16.2898C882.599 17.9034 883.019 19.7386 883.019 21.7955C883.019 23.8523 882.599 25.6761 881.758 27.267C880.917 28.858 879.627 30.108 877.888 31.017C876.15 31.9148 873.928 32.3636 871.224 32.3636H861.678V28.5455H871.087C872.951 28.5455 874.451 28.2727 875.587 27.7273C876.735 27.1818 877.565 26.4091 878.076 25.4091C878.599 24.3977 878.86 23.1932 878.86 21.7955C878.86 20.3977 878.599 19.1761 878.076 18.1307C877.553 17.0852 876.718 16.2784 875.57 15.7102C874.423 15.1307 872.906 14.8409 871.019 14.8409H863.587V46H859.36ZM875.792 30.3182L884.383 46H879.474L871.019 30.3182H875.792Z" fill="black"/>
<rect x="428" y="69" width="618" height="101" fill="#7E7B7B"/>
<rect x="452" y="195" width="574" height="168" fill="#99F8A2"/>
<rect x="464" y="417" width="562" height="77" fill="#EB1414"/>
<rect x="473" y="512" width="417" height="234" fill="#C4C4C4"/>
<rect x="908" y="512" width="118" height="234" fill="#6BB4F8"/>
<path d="M503.719 139V104.091H515.924C518.356 104.091 520.362 104.511 521.941 105.352C523.521 106.182 524.697 107.301 525.469 108.71C526.242 110.108 526.629 111.659 526.629 113.364C526.629 114.864 526.362 116.102 525.827 117.08C525.305 118.057 524.612 118.83 523.748 119.398C522.896 119.966 521.969 120.386 520.969 120.659V121C522.038 121.068 523.112 121.443 524.191 122.125C525.271 122.807 526.174 123.784 526.901 125.057C527.629 126.33 527.992 127.886 527.992 129.727C527.992 131.477 527.594 133.051 526.799 134.449C526.004 135.847 524.748 136.955 523.032 137.773C521.316 138.591 519.083 139 516.333 139H503.719ZM507.947 135.25H516.333C519.094 135.25 521.055 134.716 522.214 133.648C523.384 132.568 523.969 131.261 523.969 129.727C523.969 128.545 523.668 127.455 523.066 126.455C522.464 125.443 521.606 124.636 520.492 124.034C519.379 123.42 518.06 123.114 516.538 123.114H507.947V135.25ZM507.947 119.432H515.788C517.06 119.432 518.208 119.182 519.231 118.682C520.265 118.182 521.083 117.477 521.685 116.568C522.299 115.659 522.606 114.591 522.606 113.364C522.606 111.83 522.072 110.528 521.004 109.46C519.935 108.381 518.242 107.841 515.924 107.841H507.947V119.432ZM534.393 139V112.818H538.279V116.773H538.552C539.029 115.477 539.893 114.426 541.143 113.619C542.393 112.812 543.802 112.409 545.37 112.409C545.665 112.409 546.035 112.415 546.478 112.426C546.921 112.437 547.256 112.455 547.484 112.477V116.568C547.347 116.534 547.035 116.483 546.546 116.415C546.069 116.335 545.563 116.295 545.029 116.295C543.756 116.295 542.62 116.562 541.62 117.097C540.631 117.619 539.847 118.347 539.268 119.278C538.7 120.199 538.415 121.25 538.415 122.432V139H534.393ZM559.957 139.614C558.298 139.614 556.792 139.301 555.44 138.676C554.087 138.04 553.013 137.125 552.218 135.932C551.423 134.727 551.025 133.273 551.025 131.568C551.025 130.068 551.32 128.852 551.911 127.92C552.502 126.977 553.292 126.239 554.281 125.705C555.269 125.17 556.36 124.773 557.553 124.511C558.758 124.239 559.968 124.023 561.184 123.864C562.775 123.659 564.065 123.506 565.053 123.403C566.053 123.29 566.781 123.102 567.235 122.841C567.701 122.58 567.934 122.125 567.934 121.477V121.341C567.934 119.659 567.474 118.352 566.553 117.42C565.644 116.489 564.263 116.023 562.411 116.023C560.491 116.023 558.985 116.443 557.894 117.284C556.803 118.125 556.036 119.023 555.593 119.977L551.775 118.614C552.457 117.023 553.366 115.784 554.502 114.898C555.65 114 556.9 113.375 558.252 113.023C559.616 112.659 560.957 112.477 562.275 112.477C563.116 112.477 564.082 112.58 565.173 112.784C566.275 112.977 567.337 113.381 568.36 113.994C569.394 114.608 570.252 115.534 570.934 116.773C571.616 118.011 571.957 119.67 571.957 121.75V139H567.934V135.455H567.729C567.457 136.023 567.002 136.631 566.366 137.278C565.729 137.926 564.883 138.477 563.826 138.932C562.769 139.386 561.479 139.614 559.957 139.614ZM560.57 136C562.161 136 563.502 135.688 564.593 135.062C565.695 134.438 566.525 133.631 567.082 132.642C567.65 131.653 567.934 130.614 567.934 129.523V125.841C567.763 126.045 567.388 126.233 566.809 126.403C566.241 126.562 565.582 126.705 564.832 126.83C564.093 126.943 563.371 127.045 562.667 127.136C561.974 127.216 561.411 127.284 560.979 127.341C559.934 127.477 558.957 127.699 558.048 128.006C557.15 128.301 556.423 128.75 555.866 129.352C555.32 129.943 555.048 130.75 555.048 131.773C555.048 133.17 555.565 134.227 556.599 134.943C557.644 135.648 558.968 136 560.57 136ZM583.322 123.25V139H579.299V112.818H583.185V116.909H583.526C584.14 115.58 585.072 114.511 586.322 113.705C587.572 112.886 589.185 112.477 591.163 112.477C592.935 112.477 594.487 112.841 595.816 113.568C597.146 114.284 598.18 115.375 598.918 116.841C599.657 118.295 600.026 120.136 600.026 122.364V139H596.004V122.636C596.004 120.58 595.469 118.977 594.401 117.83C593.333 116.67 591.867 116.091 590.004 116.091C588.719 116.091 587.572 116.369 586.56 116.926C585.56 117.483 584.771 118.295 584.191 119.364C583.612 120.432 583.322 121.727 583.322 123.25ZM617.263 139.545C615.082 139.545 613.156 138.994 611.485 137.892C609.815 136.778 608.508 135.21 607.565 133.188C606.621 131.153 606.15 128.75 606.15 125.977C606.15 123.227 606.621 120.841 607.565 118.818C608.508 116.795 609.82 115.233 611.502 114.131C613.184 113.028 615.127 112.477 617.332 112.477C619.036 112.477 620.383 112.761 621.371 113.33C622.371 113.886 623.133 114.523 623.656 115.239C624.19 115.943 624.604 116.523 624.9 116.977H625.241V104.091H629.263V139H625.377V134.977H624.9C624.604 135.455 624.184 136.057 623.638 136.784C623.093 137.5 622.315 138.142 621.303 138.71C620.292 139.267 618.945 139.545 617.263 139.545ZM617.809 135.932C619.423 135.932 620.786 135.511 621.9 134.67C623.013 133.818 623.86 132.642 624.44 131.142C625.019 129.631 625.309 127.886 625.309 125.909C625.309 123.955 625.025 122.244 624.457 120.778C623.888 119.301 623.048 118.153 621.934 117.335C620.82 116.506 619.445 116.091 617.809 116.091C616.104 116.091 614.684 116.528 613.548 117.403C612.423 118.267 611.576 119.443 611.008 120.932C610.451 122.409 610.173 124.068 610.173 125.909C610.173 127.773 610.457 129.466 611.025 130.989C611.604 132.5 612.457 133.705 613.582 134.602C614.718 135.489 616.127 135.932 617.809 135.932Z" fill="white"/>
<path d="M550.119 250.295V234.818H554.142V261H550.119V256.568H549.847C549.233 257.898 548.278 259.028 546.983 259.96C545.688 260.881 544.051 261.341 542.074 261.341C540.438 261.341 538.983 260.983 537.71 260.267C536.438 259.54 535.438 258.449 534.71 256.994C533.983 255.528 533.619 253.682 533.619 251.455V234.818H537.642V251.182C537.642 253.091 538.176 254.614 539.244 255.75C540.324 256.886 541.699 257.455 543.369 257.455C544.369 257.455 545.386 257.199 546.42 256.688C547.466 256.176 548.341 255.392 549.045 254.335C549.761 253.278 550.119 251.932 550.119 250.295ZM580.055 240.682L576.442 241.705C576.214 241.102 575.879 240.517 575.436 239.949C575.004 239.369 574.413 238.892 573.663 238.517C572.913 238.142 571.953 237.955 570.783 237.955C569.18 237.955 567.845 238.324 566.777 239.062C565.72 239.79 565.192 240.716 565.192 241.841C565.192 242.841 565.555 243.631 566.283 244.21C567.01 244.79 568.146 245.273 569.692 245.659L573.578 246.614C575.919 247.182 577.663 248.051 578.811 249.222C579.959 250.381 580.533 251.875 580.533 253.705C580.533 255.205 580.101 256.545 579.237 257.727C578.385 258.909 577.192 259.841 575.658 260.523C574.124 261.205 572.339 261.545 570.305 261.545C567.635 261.545 565.425 260.966 563.675 259.807C561.925 258.648 560.817 256.955 560.351 254.727L564.169 253.773C564.533 255.182 565.22 256.239 566.232 256.943C567.254 257.648 568.589 258 570.237 258C572.112 258 573.601 257.602 574.703 256.807C575.817 256 576.374 255.034 576.374 253.909C576.374 253 576.055 252.239 575.419 251.625C574.783 251 573.805 250.534 572.487 250.227L568.124 249.205C565.726 248.636 563.964 247.756 562.839 246.562C561.726 245.358 561.169 243.852 561.169 242.045C561.169 240.568 561.584 239.261 562.413 238.125C563.254 236.989 564.396 236.097 565.839 235.449C567.294 234.801 568.942 234.477 570.783 234.477C573.374 234.477 575.408 235.045 576.885 236.182C578.374 237.318 579.43 238.818 580.055 240.682ZM597.565 261.545C595.043 261.545 592.866 260.989 591.037 259.875C589.219 258.75 587.815 257.182 586.827 255.17C585.849 253.148 585.361 250.795 585.361 248.114C585.361 245.432 585.849 243.068 586.827 241.023C587.815 238.966 589.19 237.364 590.952 236.216C592.724 235.057 594.793 234.477 597.156 234.477C598.52 234.477 599.866 234.705 601.196 235.159C602.526 235.614 603.736 236.352 604.827 237.375C605.918 238.386 606.787 239.727 607.435 241.398C608.082 243.068 608.406 245.125 608.406 247.568V249.273H588.224V245.795H604.315C604.315 244.318 604.02 243 603.429 241.841C602.849 240.682 602.02 239.767 600.94 239.097C599.872 238.426 598.611 238.091 597.156 238.091C595.554 238.091 594.168 238.489 592.997 239.284C591.838 240.068 590.946 241.091 590.321 242.352C589.696 243.614 589.384 244.966 589.384 246.409V248.727C589.384 250.705 589.724 252.381 590.406 253.756C591.099 255.119 592.06 256.159 593.287 256.875C594.514 257.58 595.94 257.932 597.565 257.932C598.622 257.932 599.577 257.784 600.429 257.489C601.293 257.182 602.037 256.727 602.662 256.125C603.287 255.511 603.77 254.75 604.111 253.841L607.997 254.932C607.588 256.25 606.901 257.409 605.935 258.409C604.969 259.398 603.776 260.17 602.355 260.727C600.935 261.273 599.338 261.545 597.565 261.545ZM614.526 261V234.818H618.412V238.773H618.685C619.162 237.477 620.026 236.426 621.276 235.619C622.526 234.812 623.935 234.409 625.503 234.409C625.798 234.409 626.168 234.415 626.611 234.426C627.054 234.437 627.389 234.455 627.616 234.477V238.568C627.48 238.534 627.168 238.483 626.679 238.415C626.202 238.335 625.696 238.295 625.162 238.295C623.889 238.295 622.753 238.562 621.753 239.097C620.764 239.619 619.98 240.347 619.401 241.278C618.832 242.199 618.548 243.25 618.548 244.432V261H614.526ZM637.158 226.091V261H632.93V226.091H637.158ZM649.111 245.25V261H645.088V234.818H648.974V238.909H649.315C649.929 237.58 650.861 236.511 652.111 235.705C653.361 234.886 654.974 234.477 656.952 234.477C658.724 234.477 660.276 234.841 661.605 235.568C662.935 236.284 663.969 237.375 664.707 238.841C665.446 240.295 665.815 242.136 665.815 244.364V261H661.793V244.636C661.793 242.58 661.259 240.977 660.19 239.83C659.122 238.67 657.656 238.091 655.793 238.091C654.509 238.091 653.361 238.369 652.349 238.926C651.349 239.483 650.56 240.295 649.98 241.364C649.401 242.432 649.111 243.727 649.111 245.25ZM673.166 270.818V234.818H677.053V238.977H677.53C677.825 238.523 678.234 237.943 678.757 237.239C679.291 236.523 680.053 235.886 681.041 235.33C682.041 234.761 683.393 234.477 685.098 234.477C687.303 234.477 689.246 235.028 690.928 236.131C692.609 237.233 693.922 238.795 694.865 240.818C695.808 242.841 696.28 245.227 696.28 247.977C696.28 250.75 695.808 253.153 694.865 255.188C693.922 257.21 692.615 258.778 690.945 259.892C689.274 260.994 687.348 261.545 685.166 261.545C683.484 261.545 682.138 261.267 681.126 260.71C680.115 260.142 679.337 259.5 678.791 258.784C678.246 258.057 677.825 257.455 677.53 256.977H677.189V270.818H673.166ZM677.121 247.909C677.121 249.886 677.411 251.631 677.99 253.142C678.57 254.642 679.416 255.818 680.53 256.67C681.643 257.511 683.007 257.932 684.621 257.932C686.303 257.932 687.706 257.489 688.831 256.602C689.967 255.705 690.82 254.5 691.388 252.989C691.967 251.466 692.257 249.773 692.257 247.909C692.257 246.068 691.973 244.409 691.405 242.932C690.848 241.443 690.001 240.267 688.865 239.403C687.74 238.528 686.325 238.091 684.621 238.091C682.984 238.091 681.609 238.506 680.496 239.335C679.382 240.153 678.541 241.301 677.973 242.778C677.405 244.244 677.121 245.955 677.121 247.909ZM718.916 250.295V234.818H722.939V261H718.916V256.568H718.643C718.03 257.898 717.075 259.028 715.78 259.96C714.484 260.881 712.848 261.341 710.871 261.341C709.234 261.341 707.78 260.983 706.507 260.267C705.234 259.54 704.234 258.449 703.507 256.994C702.78 255.528 702.416 253.682 702.416 251.455V234.818H706.439V251.182C706.439 253.091 706.973 254.614 708.041 255.75C709.121 256.886 710.496 257.455 712.166 257.455C713.166 257.455 714.183 257.199 715.217 256.688C716.263 256.176 717.138 255.392 717.842 254.335C718.558 253.278 718.916 251.932 718.916 250.295ZM741.693 234.818V238.227H728.125V234.818H741.693ZM732.08 228.545H736.102V253.5C736.102 254.636 736.267 255.489 736.597 256.057C736.938 256.614 737.369 256.989 737.892 257.182C738.426 257.364 738.989 257.455 739.58 257.455C740.023 257.455 740.386 257.432 740.67 257.386C740.955 257.33 741.182 257.284 741.352 257.25L742.17 260.864C741.898 260.966 741.517 261.068 741.028 261.17C740.54 261.284 739.92 261.341 739.17 261.341C738.034 261.341 736.92 261.097 735.83 260.608C734.75 260.119 733.852 259.375 733.136 258.375C732.432 257.375 732.08 256.114 732.08 254.591V228.545Z" fill="black"/>
<path d="M571.487 461.545C571.487 465.227 570.822 468.409 569.492 471.091C568.163 473.773 566.339 475.841 564.021 477.295C561.702 478.75 559.055 479.477 556.077 479.477C553.1 479.477 550.452 478.75 548.134 477.295C545.816 475.841 543.992 473.773 542.663 471.091C541.333 468.409 540.668 465.227 540.668 461.545C540.668 457.864 541.333 454.682 542.663 452C543.992 449.318 545.816 447.25 548.134 445.795C550.452 444.341 553.1 443.614 556.077 443.614C559.055 443.614 561.702 444.341 564.021 445.795C566.339 447.25 568.163 449.318 569.492 452C570.822 454.682 571.487 457.864 571.487 461.545ZM567.396 461.545C567.396 458.523 566.89 455.972 565.879 453.892C564.879 451.812 563.521 450.239 561.805 449.17C560.1 448.102 558.191 447.568 556.077 447.568C553.964 447.568 552.049 448.102 550.333 449.17C548.629 450.239 547.271 451.812 546.259 453.892C545.259 455.972 544.759 458.523 544.759 461.545C544.759 464.568 545.259 467.119 546.259 469.199C547.271 471.278 548.629 472.852 550.333 473.92C552.049 474.989 553.964 475.523 556.077 475.523C558.191 475.523 560.1 474.989 561.805 473.92C563.521 472.852 564.879 471.278 565.879 469.199C566.89 467.119 567.396 464.568 567.396 461.545ZM578.594 479V444.091H599.526V447.841H582.822V459.636H597.958V463.386H582.822V479H578.594ZM606.766 479V444.091H627.698V447.841H610.994V459.636H626.13V463.386H610.994V479H606.766ZM649.87 479H645.438L658.256 444.091H662.62L675.438 479H671.006L660.575 449.614H660.302L649.87 479ZM651.506 465.364H669.37V469.114H651.506V465.364ZM708.558 444.091V479H704.467L685.444 451.591H685.103V479H680.876V444.091H684.967L704.058 471.568H704.398V444.091H708.558ZM736.107 452.818C735.903 451.091 735.073 449.75 733.619 448.795C732.164 447.841 730.38 447.364 728.266 447.364C726.721 447.364 725.369 447.614 724.21 448.114C723.062 448.614 722.164 449.301 721.516 450.176C720.88 451.051 720.562 452.045 720.562 453.159C720.562 454.091 720.783 454.892 721.227 455.562C721.681 456.222 722.261 456.773 722.965 457.216C723.67 457.648 724.408 458.006 725.181 458.29C725.954 458.562 726.664 458.784 727.312 458.955L730.857 459.909C731.766 460.148 732.778 460.477 733.891 460.898C735.016 461.318 736.09 461.892 737.113 462.619C738.147 463.335 738.999 464.256 739.67 465.381C740.34 466.506 740.675 467.886 740.675 469.523C740.675 471.409 740.181 473.114 739.192 474.636C738.215 476.159 736.783 477.369 734.897 478.267C733.022 479.165 730.744 479.614 728.062 479.614C725.562 479.614 723.397 479.21 721.567 478.403C719.749 477.597 718.317 476.472 717.272 475.028C716.238 473.585 715.653 471.909 715.516 470H719.88C719.994 471.318 720.437 472.409 721.21 473.273C721.994 474.125 722.982 474.761 724.175 475.182C725.38 475.591 726.675 475.795 728.062 475.795C729.675 475.795 731.124 475.534 732.408 475.011C733.692 474.477 734.71 473.739 735.46 472.795C736.21 471.841 736.585 470.727 736.585 469.455C736.585 468.295 736.261 467.352 735.613 466.625C734.965 465.898 734.113 465.307 733.056 464.852C731.999 464.398 730.857 464 729.63 463.659L725.335 462.432C722.607 461.648 720.448 460.528 718.857 459.074C717.266 457.619 716.471 455.716 716.471 453.364C716.471 451.409 716.999 449.705 718.056 448.25C719.124 446.784 720.556 445.648 722.352 444.841C724.158 444.023 726.175 443.614 728.403 443.614C730.653 443.614 732.653 444.017 734.403 444.824C736.153 445.619 737.539 446.71 738.562 448.097C739.596 449.483 740.141 451.057 740.198 452.818H736.107ZM789.217 455H784.989C784.739 453.784 784.302 452.716 783.677 451.795C783.063 450.875 782.313 450.102 781.427 449.477C780.552 448.841 779.58 448.364 778.512 448.045C777.444 447.727 776.33 447.568 775.171 447.568C773.058 447.568 771.143 448.102 769.427 449.17C767.722 450.239 766.364 451.812 765.353 453.892C764.353 455.972 763.853 458.523 763.853 461.545C763.853 464.568 764.353 467.119 765.353 469.199C766.364 471.278 767.722 472.852 769.427 473.92C771.143 474.989 773.058 475.523 775.171 475.523C776.33 475.523 777.444 475.364 778.512 475.045C779.58 474.727 780.552 474.256 781.427 473.631C782.313 472.994 783.063 472.216 783.677 471.295C784.302 470.364 784.739 469.295 784.989 468.091H789.217C788.898 469.875 788.319 471.472 787.478 472.881C786.637 474.29 785.592 475.489 784.342 476.477C783.092 477.455 781.688 478.199 780.131 478.71C778.586 479.222 776.933 479.477 775.171 479.477C772.194 479.477 769.546 478.75 767.228 477.295C764.91 475.841 763.086 473.773 761.756 471.091C760.427 468.409 759.762 465.227 759.762 461.545C759.762 457.864 760.427 454.682 761.756 452C763.086 449.318 764.91 447.25 767.228 445.795C769.546 444.341 772.194 443.614 775.171 443.614C776.933 443.614 778.586 443.869 780.131 444.381C781.688 444.892 783.092 445.642 784.342 446.631C785.592 447.608 786.637 448.801 787.478 450.21C788.319 451.608 788.898 453.205 789.217 455ZM796.048 479V444.091H817.116V447.841H800.275V459.636H816.025V463.386H800.275V475.25H817.388V479H796.048ZM849.008 479H838.235V444.091H849.485C852.871 444.091 855.769 444.79 858.178 446.188C860.587 447.574 862.434 449.568 863.718 452.17C865.002 454.761 865.644 457.864 865.644 461.477C865.644 465.114 864.996 468.244 863.701 470.869C862.406 473.483 860.519 475.494 858.042 476.903C855.565 478.301 852.553 479 849.008 479ZM842.462 475.25H848.735C851.621 475.25 854.013 474.693 855.911 473.58C857.809 472.466 859.224 470.881 860.156 468.824C861.087 466.767 861.553 464.318 861.553 461.477C861.553 458.659 861.093 456.233 860.173 454.199C859.252 452.153 857.877 450.585 856.048 449.494C854.218 448.392 851.94 447.841 849.212 447.841H842.462V475.25ZM872.735 479V444.091H893.803V447.841H876.962V459.636H892.712V463.386H876.962V475.25H894.076V479H872.735ZM901.423 479V444.091H905.65V475.25H921.877V479H901.423Z" fill="white"/>
<path d="M969.468 521.455L958.218 563.25H954.536L965.786 521.455H969.468ZM960.364 600.727L960.636 593.227L954.295 597.25L952.659 594.386L959.341 590.909L952.659 587.432L954.295 584.568L960.636 588.591L960.364 581.091H963.636L963.364 588.591L969.705 584.568L971.341 587.432L964.659 590.909L971.341 594.386L969.705 597.25L963.364 593.227L963.636 600.727H960.364ZM969.643 657.159V660.909H954.37V657.159H969.643ZM960.089 729.614V707.114H963.907V729.614H960.089ZM950.748 720.273V716.455H973.248V720.273H950.748Z" fill="black"/>
<path d="M939.353 106.091V141H935.126V106.091H939.353ZM958.602 141H947.829V106.091H959.079C962.465 106.091 965.363 106.79 967.772 108.188C970.181 109.574 972.028 111.568 973.312 114.17C974.596 116.761 975.238 119.864 975.238 123.477C975.238 127.114 974.59 130.244 973.295 132.869C971.999 135.483 970.113 137.494 967.636 138.903C965.158 140.301 962.147 141 958.602 141ZM952.056 137.25H958.329C961.215 137.25 963.607 136.693 965.505 135.58C967.403 134.466 968.817 132.881 969.749 130.824C970.681 128.767 971.147 126.318 971.147 123.477C971.147 120.659 970.687 118.233 969.766 116.199C968.846 114.153 967.471 112.585 965.641 111.494C963.812 110.392 961.533 109.841 958.806 109.841H952.056V137.25Z" fill="white"/>
<path d="M816.149 348V313.091H827.945C830.672 313.091 832.911 313.557 834.661 314.489C836.411 315.409 837.706 316.676 838.547 318.29C839.388 319.903 839.808 321.739 839.808 323.795C839.808 325.852 839.388 327.676 838.547 329.267C837.706 330.858 836.416 332.108 834.678 333.017C832.939 333.915 830.717 334.364 828.013 334.364H818.467V330.545H827.876C829.74 330.545 831.24 330.273 832.376 329.727C833.524 329.182 834.354 328.409 834.865 327.409C835.388 326.398 835.649 325.193 835.649 323.795C835.649 322.398 835.388 321.176 834.865 320.131C834.342 319.085 833.507 318.278 832.359 317.71C831.212 317.131 829.695 316.841 827.808 316.841H820.376V348H816.149ZM832.581 332.318L841.172 348H836.263L827.808 332.318H832.581ZM857.003 348.545C854.48 348.545 852.304 347.989 850.474 346.875C848.656 345.75 847.253 344.182 846.264 342.17C845.287 340.148 844.798 337.795 844.798 335.114C844.798 332.432 845.287 330.068 846.264 328.023C847.253 325.966 848.628 324.364 850.389 323.216C852.162 322.057 854.23 321.477 856.594 321.477C857.957 321.477 859.304 321.705 860.634 322.159C861.963 322.614 863.173 323.352 864.264 324.375C865.355 325.386 866.224 326.727 866.872 328.398C867.52 330.068 867.844 332.125 867.844 334.568V336.273H847.662V332.795H863.753C863.753 331.318 863.457 330 862.866 328.841C862.287 327.682 861.457 326.767 860.378 326.097C859.31 325.426 858.048 325.091 856.594 325.091C854.991 325.091 853.605 325.489 852.435 326.284C851.276 327.068 850.384 328.091 849.759 329.352C849.134 330.614 848.821 331.966 848.821 333.409V335.727C848.821 337.705 849.162 339.381 849.844 340.756C850.537 342.119 851.497 343.159 852.724 343.875C853.952 344.58 855.378 344.932 857.003 344.932C858.06 344.932 859.014 344.784 859.866 344.489C860.73 344.182 861.474 343.727 862.099 343.125C862.724 342.511 863.207 341.75 863.548 340.841L867.435 341.932C867.026 343.25 866.338 344.409 865.372 345.409C864.406 346.398 863.213 347.17 861.793 347.727C860.372 348.273 858.776 348.545 857.003 348.545ZM892.509 327.682L888.895 328.705C888.668 328.102 888.332 327.517 887.889 326.949C887.457 326.369 886.866 325.892 886.116 325.517C885.366 325.142 884.406 324.955 883.236 324.955C881.634 324.955 880.298 325.324 879.23 326.062C878.173 326.79 877.645 327.716 877.645 328.841C877.645 329.841 878.009 330.631 878.736 331.21C879.463 331.79 880.599 332.273 882.145 332.659L886.031 333.614C888.372 334.182 890.116 335.051 891.264 336.222C892.412 337.381 892.986 338.875 892.986 340.705C892.986 342.205 892.554 343.545 891.69 344.727C890.838 345.909 889.645 346.841 888.111 347.523C886.577 348.205 884.793 348.545 882.759 348.545C880.088 348.545 877.878 347.966 876.128 346.807C874.378 345.648 873.27 343.955 872.804 341.727L876.622 340.773C876.986 342.182 877.673 343.239 878.685 343.943C879.707 344.648 881.043 345 882.69 345C884.565 345 886.054 344.602 887.156 343.807C888.27 343 888.827 342.034 888.827 340.909C888.827 340 888.509 339.239 887.872 338.625C887.236 338 886.259 337.534 884.94 337.227L880.577 336.205C878.179 335.636 876.418 334.756 875.293 333.562C874.179 332.358 873.622 330.852 873.622 329.045C873.622 327.568 874.037 326.261 874.866 325.125C875.707 323.989 876.849 323.097 878.293 322.449C879.747 321.801 881.395 321.477 883.236 321.477C885.827 321.477 887.861 322.045 889.338 323.182C890.827 324.318 891.884 325.818 892.509 327.682ZM915.541 337.295V321.818H919.564V348H915.541V343.568H915.268C914.655 344.898 913.7 346.028 912.405 346.96C911.109 347.881 909.473 348.341 907.496 348.341C905.859 348.341 904.405 347.983 903.132 347.267C901.859 346.54 900.859 345.449 900.132 343.994C899.405 342.528 899.041 340.682 899.041 338.455V321.818H903.064V338.182C903.064 340.091 903.598 341.614 904.666 342.75C905.746 343.886 907.121 344.455 908.791 344.455C909.791 344.455 910.808 344.199 911.842 343.688C912.888 343.176 913.763 342.392 914.467 341.335C915.183 340.278 915.541 338.932 915.541 337.295ZM930.955 313.091V348H926.932V313.091H930.955ZM949.709 321.818V325.227H936.141V321.818H949.709ZM940.095 315.545H944.118V340.5C944.118 341.636 944.283 342.489 944.612 343.057C944.953 343.614 945.385 343.989 945.908 344.182C946.442 344.364 947.004 344.455 947.595 344.455C948.038 344.455 948.402 344.432 948.686 344.386C948.97 344.33 949.197 344.284 949.368 344.25L950.186 347.864C949.913 347.966 949.533 348.068 949.044 348.17C948.555 348.284 947.936 348.341 947.186 348.341C946.05 348.341 944.936 348.097 943.845 347.608C942.766 347.119 941.868 346.375 941.152 345.375C940.447 344.375 940.095 343.114 940.095 341.591V315.545Z" fill="black"/>
<path d="M486.705 558L502.318 527.114V526.841H484.318V523.091H506.682V527.045L491.136 558H486.705ZM659.217 558.477C656.876 558.477 654.808 558.062 653.013 557.233C651.229 556.392 649.837 555.239 648.837 553.773C647.837 552.295 647.342 550.614 647.354 548.727C647.342 547.25 647.632 545.886 648.223 544.636C648.814 543.375 649.621 542.324 650.643 541.483C651.678 540.631 652.831 540.091 654.104 539.864V539.659C652.433 539.227 651.104 538.29 650.115 536.847C649.126 535.392 648.638 533.739 648.649 531.886C648.638 530.114 649.087 528.528 649.996 527.131C650.905 525.733 652.155 524.631 653.746 523.824C655.348 523.017 657.172 522.614 659.217 522.614C661.24 522.614 663.047 523.017 664.638 523.824C666.229 524.631 667.479 525.733 668.388 527.131C669.308 528.528 669.774 530.114 669.786 531.886C669.774 533.739 669.268 535.392 668.268 536.847C667.28 538.29 665.967 539.227 664.331 539.659V539.864C665.592 540.091 666.729 540.631 667.74 541.483C668.751 542.324 669.558 543.375 670.161 544.636C670.763 545.886 671.07 547.25 671.081 548.727C671.07 550.614 670.558 552.295 669.547 553.773C668.547 555.239 667.155 556.392 665.371 557.233C663.598 558.062 661.547 558.477 659.217 558.477ZM659.217 554.727C660.797 554.727 662.161 554.472 663.308 553.96C664.456 553.449 665.342 552.727 665.967 551.795C666.592 550.864 666.911 549.773 666.922 548.523C666.911 547.205 666.57 546.04 665.899 545.028C665.229 544.017 664.314 543.222 663.155 542.642C662.007 542.062 660.695 541.773 659.217 541.773C657.729 541.773 656.399 542.062 655.229 542.642C654.07 543.222 653.155 544.017 652.484 545.028C651.825 546.04 651.501 547.205 651.513 548.523C651.501 549.773 651.803 550.864 652.416 551.795C653.041 552.727 653.933 553.449 655.092 553.96C656.251 554.472 657.626 554.727 659.217 554.727ZM659.217 538.159C660.467 538.159 661.575 537.909 662.541 537.409C663.518 536.909 664.286 536.21 664.842 535.312C665.399 534.415 665.683 533.364 665.695 532.159C665.683 530.977 665.405 529.949 664.859 529.074C664.314 528.187 663.558 527.506 662.592 527.028C661.626 526.54 660.501 526.295 659.217 526.295C657.911 526.295 656.768 526.54 655.791 527.028C654.814 527.506 654.058 528.187 653.524 529.074C652.99 529.949 652.729 530.977 652.74 532.159C652.729 533.364 652.996 534.415 653.541 535.312C654.098 536.21 654.865 536.909 655.842 537.409C656.82 537.909 657.945 538.159 659.217 538.159ZM850.727 522.614C852.159 522.625 853.591 522.898 855.023 523.432C856.455 523.966 857.761 524.852 858.943 526.091C860.125 527.318 861.074 528.994 861.79 531.119C862.506 533.244 862.864 535.909 862.864 539.114C862.864 542.216 862.568 544.972 861.977 547.381C861.398 549.778 860.557 551.801 859.455 553.449C858.364 555.097 857.034 556.347 855.466 557.199C853.909 558.051 852.148 558.477 850.182 558.477C848.227 558.477 846.483 558.091 844.949 557.318C843.426 556.534 842.176 555.449 841.199 554.062C840.233 552.665 839.614 551.045 839.341 549.205H843.5C843.875 550.807 844.619 552.131 845.733 553.176C846.858 554.21 848.341 554.727 850.182 554.727C852.875 554.727 855 553.551 856.557 551.199C858.125 548.847 858.909 545.523 858.909 541.227H858.636C858 542.182 857.244 543.006 856.369 543.699C855.494 544.392 854.523 544.926 853.455 545.301C852.386 545.676 851.25 545.864 850.045 545.864C848.045 545.864 846.21 545.369 844.54 544.381C842.881 543.381 841.551 542.011 840.551 540.273C839.562 538.523 839.068 536.523 839.068 534.273C839.068 532.136 839.545 530.182 840.5 528.409C841.466 526.625 842.818 525.205 844.557 524.148C846.307 523.091 848.364 522.58 850.727 522.614ZM850.727 526.364C849.295 526.364 848.006 526.722 846.858 527.438C845.722 528.142 844.818 529.097 844.148 530.301C843.489 531.494 843.159 532.818 843.159 534.273C843.159 535.727 843.477 537.051 844.114 538.244C844.761 539.426 845.642 540.369 846.756 541.074C847.881 541.767 849.159 542.114 850.591 542.114C851.67 542.114 852.676 541.903 853.608 541.483C854.54 541.051 855.352 540.466 856.045 539.727C856.75 538.977 857.301 538.131 857.699 537.188C858.097 536.233 858.295 535.239 858.295 534.205C858.295 532.841 857.966 531.562 857.307 530.369C856.659 529.176 855.761 528.21 854.614 527.472C853.477 526.733 852.182 526.364 850.727 526.364ZM484.795 608.841V605.364L500.136 581.091H502.659V586.477H500.955L489.364 604.818V605.091H510.023V608.841H484.795ZM501.227 616V607.784V606.165V581.091H505.25V616H501.227ZM662.32 616.477C660.32 616.477 658.518 616.08 656.916 615.284C655.314 614.489 654.03 613.398 653.064 612.011C652.098 610.625 651.57 609.045 651.479 607.273H655.57C655.729 608.852 656.445 610.159 657.717 611.193C659.001 612.216 660.536 612.727 662.32 612.727C663.751 612.727 665.024 612.392 666.138 611.722C667.263 611.051 668.143 610.131 668.78 608.96C669.428 607.778 669.751 606.443 669.751 604.955C669.751 603.432 669.416 602.074 668.746 600.881C668.087 599.676 667.178 598.727 666.018 598.034C664.859 597.341 663.536 596.989 662.047 596.977C660.979 596.966 659.882 597.131 658.757 597.472C657.632 597.801 656.706 598.227 655.979 598.75L652.024 598.273L654.138 581.091H672.274V584.841H657.683L656.456 595.136H656.661C657.376 594.568 658.274 594.097 659.354 593.722C660.433 593.347 661.558 593.159 662.729 593.159C664.865 593.159 666.768 593.67 668.439 594.693C670.121 595.705 671.439 597.091 672.393 598.852C673.359 600.614 673.842 602.625 673.842 604.886C673.842 607.114 673.342 609.102 672.342 610.852C671.354 612.591 669.99 613.966 668.251 614.977C666.513 615.977 664.536 616.477 662.32 616.477ZM854.205 616.477C852.773 616.455 851.341 616.182 849.909 615.659C848.477 615.136 847.17 614.256 845.989 613.017C844.807 611.767 843.858 610.08 843.142 607.955C842.426 605.818 842.068 603.136 842.068 599.909C842.068 596.818 842.358 594.08 842.938 591.693C843.517 589.295 844.358 587.278 845.46 585.642C846.563 583.994 847.892 582.744 849.449 581.892C851.017 581.04 852.784 580.614 854.75 580.614C856.705 580.614 858.443 581.006 859.966 581.79C861.5 582.562 862.75 583.642 863.716 585.028C864.682 586.415 865.307 588.011 865.591 589.818H861.432C861.045 588.25 860.295 586.949 859.182 585.915C858.068 584.881 856.591 584.364 854.75 584.364C852.045 584.364 849.915 585.54 848.358 587.892C846.813 590.244 846.034 593.545 846.023 597.795H846.295C846.932 596.83 847.688 596.006 848.562 595.324C849.449 594.631 850.426 594.097 851.494 593.722C852.563 593.347 853.693 593.159 854.886 593.159C856.886 593.159 858.716 593.659 860.375 594.659C862.034 595.648 863.364 597.017 864.364 598.767C865.364 600.506 865.864 602.5 865.864 604.75C865.864 606.909 865.381 608.886 864.415 610.682C863.449 612.466 862.091 613.886 860.341 614.943C858.602 615.989 856.557 616.5 854.205 616.477ZM854.205 612.727C855.636 612.727 856.92 612.369 858.057 611.653C859.205 610.937 860.108 609.977 860.767 608.773C861.438 607.568 861.773 606.227 861.773 604.75C861.773 603.307 861.449 601.994 860.801 600.812C860.165 599.619 859.284 598.67 858.159 597.966C857.045 597.261 855.773 596.909 854.341 596.909C853.261 596.909 852.256 597.125 851.324 597.557C850.392 597.977 849.574 598.557 848.869 599.295C848.176 600.034 847.631 600.881 847.233 601.835C846.835 602.778 846.636 603.773 846.636 604.818C846.636 606.205 846.96 607.5 847.608 608.705C848.267 609.909 849.165 610.881 850.301 611.619C851.449 612.358 852.75 612.727 854.205 612.727ZM497.886 639.091V674H493.659V643.523H493.455L484.932 649.182V644.886L493.659 639.091H497.886ZM656.426 674V670.932L667.949 658.318C669.301 656.841 670.415 655.557 671.29 654.466C672.165 653.364 672.813 652.33 673.233 651.364C673.665 650.386 673.881 649.364 673.881 648.295C673.881 647.068 673.585 646.006 672.994 645.108C672.415 644.21 671.619 643.517 670.608 643.028C669.597 642.54 668.46 642.295 667.199 642.295C665.858 642.295 664.688 642.574 663.688 643.131C662.699 643.676 661.932 644.443 661.386 645.432C660.852 646.42 660.585 647.58 660.585 648.909H656.562C656.562 646.864 657.034 645.068 657.977 643.523C658.92 641.977 660.205 640.773 661.83 639.909C663.466 639.045 665.301 638.614 667.335 638.614C669.381 638.614 671.193 639.045 672.773 639.909C674.352 640.773 675.591 641.937 676.489 643.403C677.386 644.869 677.835 646.5 677.835 648.295C677.835 649.58 677.602 650.835 677.136 652.062C676.682 653.278 675.886 654.636 674.75 656.136C673.625 657.625 672.062 659.443 670.062 661.591L662.222 669.977V670.25H678.449V674H656.426ZM845.784 674.477C843.534 674.477 841.528 674.091 839.767 673.318C838.017 672.545 836.625 671.472 835.591 670.097C834.568 668.71 834.011 667.102 833.92 665.273H838.216C838.307 666.398 838.693 667.369 839.375 668.188C840.057 668.994 840.949 669.619 842.051 670.062C843.153 670.506 844.375 670.727 845.716 670.727C847.216 670.727 848.545 670.466 849.705 669.943C850.864 669.42 851.773 668.693 852.432 667.761C853.091 666.83 853.42 665.75 853.42 664.523C853.42 663.239 853.102 662.108 852.466 661.131C851.83 660.142 850.898 659.369 849.67 658.812C848.443 658.256 846.943 657.977 845.17 657.977H842.375V654.227H845.17C846.557 654.227 847.773 653.977 848.818 653.477C849.875 652.977 850.699 652.273 851.29 651.364C851.892 650.455 852.193 649.386 852.193 648.159C852.193 646.977 851.932 645.949 851.409 645.074C850.886 644.199 850.148 643.517 849.193 643.028C848.25 642.54 847.136 642.295 845.852 642.295C844.648 642.295 843.511 642.517 842.443 642.96C841.386 643.392 840.523 644.023 839.852 644.852C839.182 645.67 838.818 646.659 838.761 647.818H834.67C834.739 645.989 835.29 644.386 836.324 643.011C837.358 641.625 838.71 640.545 840.381 639.773C842.063 639 843.909 638.614 845.92 638.614C848.08 638.614 849.932 639.051 851.477 639.926C853.023 640.79 854.21 641.932 855.04 643.352C855.869 644.773 856.284 646.307 856.284 647.955C856.284 649.92 855.767 651.597 854.733 652.983C853.71 654.369 852.318 655.33 850.557 655.864V656.136C852.761 656.5 854.483 657.437 855.722 658.949C856.96 660.449 857.58 662.307 857.58 664.523C857.58 666.42 857.063 668.125 856.028 669.636C855.006 671.136 853.608 672.318 851.835 673.182C850.063 674.045 848.045 674.477 845.784 674.477ZM497 732.477C494.432 732.477 492.244 731.778 490.438 730.381C488.631 728.972 487.25 726.932 486.295 724.261C485.341 721.58 484.864 718.341 484.864 714.545C484.864 710.773 485.341 707.551 486.295 704.881C487.261 702.199 488.648 700.153 490.455 698.744C492.273 697.324 494.455 696.614 497 696.614C499.545 696.614 501.722 697.324 503.528 698.744C505.347 700.153 506.733 702.199 507.688 704.881C508.653 707.551 509.136 710.773 509.136 714.545C509.136 718.341 508.659 721.58 507.705 724.261C506.75 726.932 505.369 728.972 503.562 730.381C501.756 731.778 499.568 732.477 497 732.477ZM497 728.727C499.545 728.727 501.523 727.5 502.932 725.045C504.341 722.591 505.045 719.091 505.045 714.545C505.045 711.523 504.722 708.949 504.074 706.824C503.438 704.699 502.517 703.08 501.312 701.966C500.119 700.852 498.682 700.295 497 700.295C494.477 700.295 492.506 701.54 491.085 704.028C489.665 706.506 488.955 710.011 488.955 714.545C488.955 717.568 489.273 720.136 489.909 722.25C490.545 724.364 491.46 725.972 492.653 727.074C493.858 728.176 495.307 728.727 497 728.727ZM667.114 732.273C666.273 732.273 665.551 731.972 664.949 731.369C664.347 730.767 664.045 730.045 664.045 729.205C664.045 728.364 664.347 727.642 664.949 727.04C665.551 726.437 666.273 726.136 667.114 726.136C667.955 726.136 668.676 726.437 669.278 727.04C669.881 727.642 670.182 728.364 670.182 729.205C670.182 729.761 670.04 730.273 669.756 730.739C669.483 731.205 669.114 731.58 668.648 731.864C668.193 732.136 667.682 732.273 667.114 732.273ZM841.037 715.159V711.477H862.037V715.159H841.037ZM841.037 725.25V721.568H862.037V725.25H841.037Z" fill="black"/>
</svg>
